<?xml version="1.0" encoding="UTF-8" standalone="no"?>
<!-- Created with Inkscape (http://www.inkscape.org/) -->

<svg
   xmlns:dc="http://purl.org/dc/elements/1.1/"
   xmlns:cc="http://creativecommons.org/ns#"
   xmlns:rdf="http://www.w3.org/1999/02/22-rdf-syntax-ns#"
   xmlns:svg="http://www.w3.org/2000/svg"
   xmlns="http://www.w3.org/2000/svg"
   xmlns:sodipodi="http://sodipodi.sourceforge.net/DTD/sodipodi-0.dtd"
   xmlns:inkscape="http://www.inkscape.org/namespaces/inkscape"
   width="35.225243mm"
   height="17.722462mm"
   viewBox="0 0 35.225243 17.722462"
   version="1.1"
   id="svg8"
   inkscape:version="0.92.2 (5c3e80d, 2017-08-06)"
   sodipodi:docname="40.svg">
  <defs
     id="defs2" />
  <sodipodi:namedview
     id="base"
     pagecolor="#ffffff"
     bordercolor="#666666"
     borderopacity="1.0"
     inkscape:pageopacity="0.0"
     inkscape:pageshadow="2"
     inkscape:zoom="2.8"
     inkscape:cx="26.116797"
     inkscape:cy="-54.465164"
     inkscape:document-units="mm"
     inkscape:current-layer="layer1"
     showgrid="false"
     inkscape:window-width="1122"
     inkscape:window-height="982"
     inkscape:window-x="1542"
     inkscape:window-y="17"
     inkscape:window-maximized="0"
     fit-margin-top="0"
     fit-margin-left="0"
     fit-margin-right="0"
     fit-margin-bottom="0" />
  <metadata
     id="metadata5">
    <rdf:RDF>
      <cc:Work
         rdf:about="">
        <dc:format>image/svg+xml</dc:format>
        <dc:type
           rdf:resource="http://purl.org/dc/dcmitype/StillImage" />
        <dc:title></dc:title>
      </cc:Work>
    </rdf:RDF>
  </metadata>
  <g
     inkscape:label="Layer 1"
     inkscape:groupmode="layer"
     id="layer1"
     transform="translate(-77.109956,-30.313528)">
    <path
       style="fill:#8017e1;fill-opacity:1;stroke-width:0.26458332"
       d="m 95.604019,47.777162 c -3.072803,-0.925234 -4.435487,-3.573573 -4.435487,-8.620245 0,-5.493964 1.772787,-8.313306 5.504329,-8.753777 3.370639,-0.39787 5.806279,1.612064 6.671099,5.50512 0.5039,2.26835 0.23111,6.62149 -0.52387,8.359828 -1.27875,2.944327 -4.266466,4.397213 -7.216071,3.509074 z m 3.098777,-3.278011 c 0.957035,-0.957036 1.261986,-2.54585 1.147112,-5.976531 -0.07545,-2.253168 -0.223804,-3.277307 -0.568015,-3.921084 -0.935972,-1.750546 -2.721712,-1.775999 -3.733756,-0.05322 -0.767205,1.305996 -0.950862,6.873937 -0.284305,8.619292 0.748193,1.959115 2.235512,2.534995 3.438964,1.331543 z m -13.355097,1.557085 v -1.719791 h -4.118872 -4.118871 l 0.185767,-0.595313 c 0.168691,-0.540588 6.402201,-13.163996 6.613375,-13.392666 0.153984,-0.166742 2.761517,0.851226 2.761517,1.078083 0,0.118105 -1.071562,2.434808 -2.38125,5.148227 -1.309687,2.71342 -2.38125,4.974518 -2.38125,5.024663 0,0.05015 0.768691,0.09117 1.708201,0.09117 h 1.7082 l 0.07774,-1.918229 0.07774,-1.918229 1.653646,-0.07877 1.653646,-0.07877 v 1.997 1.997 h 0.79375 c 0.776111,0 0.79375,0.0294 0.79375,1.322917 0,1.293519 -0.01764,1.322917 -0.79375,1.322917 h -0.79375 v 1.719791 1.719792 H 87.06749 85.347699 Z m 20.152431,-9.633622 c 0.0485,-0.132503 0.98116,-1.556976 2.07257,-3.165496 1.54185,-2.272382 2.11935,-2.926701 2.58965,-2.934086 0.54081,-0.0085 0.37308,0.328651 -1.57485,3.165496 -1.48256,2.159103 -2.33939,3.175 -2.67785,3.175 -0.27374,0 -0.45803,-0.108411 -0.40952,-0.240914 z m 3.76879,-0.419377 c -0.62001,-0.946261 -0.30398,-2.453571 0.58533,-2.791685 1.30681,-0.496846 2.48095,0.363573 2.48095,1.818054 0,1.569103 -2.21522,2.272501 -3.06628,0.973631 z m 1.87565,-1.195416 c 0,-0.746029 -0.10119,-0.922418 -0.52916,-0.922418 -0.3523,0 -0.55827,0.205412 -0.61624,0.614555 -0.12604,0.889658 0.149,1.422171 0.68158,1.319605 0.33627,-0.06476 0.46382,-0.343 0.46382,-1.011742 z m -6.77095,-1.285589 c -0.45949,-0.372074 -0.60473,-0.747332 -0.58321,-1.506825 0.0324,-1.143219 0.58231,-1.701879 1.67518,-1.701879 1.45876,0 2.14532,2.078454 1.04878,3.175 -0.66173,0.661724 -1.35176,0.672588 -2.14075,0.0337 z m 1.56141,-1.424967 c 0.0709,-0.854245 0.006,-0.989987 -0.47133,-0.989987 -0.66357,0 -0.92014,0.549291 -0.68821,1.47338 0.26725,1.064802 1.05848,0.734951 1.15954,-0.483393 z"
       id="path65"
       inkscape:connector-curvature="0" />
  </g>
</svg>
