<?xml version="1.0" encoding="UTF-8" standalone="no"?>
<!-- Created with Inkscape (http://www.inkscape.org/) -->

<svg
   xmlns:dc="http://purl.org/dc/elements/1.1/"
   xmlns:cc="http://creativecommons.org/ns#"
   xmlns:rdf="http://www.w3.org/1999/02/22-rdf-syntax-ns#"
   xmlns:svg="http://www.w3.org/2000/svg"
   xmlns="http://www.w3.org/2000/svg"
   xmlns:sodipodi="http://sodipodi.sourceforge.net/DTD/sodipodi-0.dtd"
   xmlns:inkscape="http://www.inkscape.org/namespaces/inkscape"
   width="35.725239mm"
   height="18.201345mm"
   viewBox="0 0 35.725239 18.201346"
   version="1.1"
   id="svg8"
   inkscape:version="0.92.2 (5c3e80d, 2017-08-06)"
   sodipodi:docname="77.svg">
  <defs
     id="defs2" />
  <sodipodi:namedview
     id="base"
     pagecolor="#ffffff"
     bordercolor="#666666"
     borderopacity="1.0"
     inkscape:pageopacity="0.0"
     inkscape:pageshadow="2"
     inkscape:zoom="2.8"
     inkscape:cx="95.403091"
     inkscape:cy="34.914219"
     inkscape:document-units="mm"
     inkscape:current-layer="layer1"
     showgrid="false"
     inkscape:window-width="1122"
     inkscape:window-height="982"
     inkscape:window-x="1542"
     inkscape:window-y="17"
     inkscape:window-maximized="0"
     fit-margin-top="0"
     fit-margin-left="0"
     fit-margin-right="0"
     fit-margin-bottom="0" />
  <metadata
     id="metadata5">
    <rdf:RDF>
      <cc:Work
         rdf:about="">
        <dc:format>image/svg+xml</dc:format>
        <dc:type
           rdf:resource="http://purl.org/dc/dcmitype/StillImage" />
        <dc:title></dc:title>
      </cc:Work>
    </rdf:RDF>
  </metadata>
  <g
     inkscape:label="Layer 1"
     inkscape:groupmode="layer"
     id="layer1"
     transform="translate(-58.777957,-53.482939)">
    <path
       style="fill:#8017e1;fill-opacity:1;stroke-width:0.26458332"
       d="m 62.151394,71.170645 c -0.691223,-0.305125 -1.25677,-0.658119 -1.25677,-0.78443 0,-0.126311 1.250156,-3.199165 2.778125,-6.828566 1.527968,-3.629401 2.778125,-6.659177 2.778125,-6.732837 0,-0.07366 -1.726407,-0.133926 -3.836459,-0.133926 h -3.836458 v -1.455209 -1.455208 h 6.246391 6.246392 l -0.15076,0.595313 c -0.419149,1.655113 -7.062646,17.269915 -7.363398,17.30685 -0.191629,0.02353 -0.913964,-0.206861 -1.605188,-0.511987 z m 13.229167,0 c -0.691224,-0.305125 -1.256771,-0.658119 -1.256771,-0.78443 0,-0.126311 1.250157,-3.199165 2.778125,-6.828566 1.527969,-3.629401 2.778125,-6.659177 2.778125,-6.732837 0,-0.07366 -1.726406,-0.133926 -3.836458,-0.133926 h -3.836458 v -1.455209 -1.455208 h 6.246391 6.246391 l -0.15076,0.595313 c -0.419149,1.655113 -7.062645,17.269915 -7.363397,17.30685 -0.191629,0.02353 -0.913964,-0.206861 -1.605188,-0.511987 z M 87.774938,59.392303 c 2.698999,-4.207185 3.98136,-5.857534 4.558554,-5.866677 0.553474,-0.0088 0.392555,0.314093 -1.610598,3.231405 -1.612389,2.348221 -2.394458,3.265921 -2.838762,3.331072 l -0.613251,0.08993 z m 3.694063,0.150128 c -0.942833,-1.346083 -0.199901,-3.116129 1.307914,-3.116129 0.626002,0 1.020162,0.177215 1.307915,0.588038 0.942832,1.346084 0.199901,3.116129 -1.307915,3.116129 -0.626001,0 -1.020162,-0.177214 -1.307914,-0.588038 z m 1.837081,-1.267669 c 0,-0.746029 -0.10119,-0.922418 -0.529167,-0.922418 -0.352295,0 -0.558268,0.205412 -0.616235,0.614555 -0.126045,0.889658 0.149,1.422171 0.681582,1.319605 0.336264,-0.06476 0.46382,-0.343 0.46382,-1.011742 z m -7.258743,-1.43074 c -0.513834,-0.619133 -0.456084,-2.167937 0.10391,-2.786723 1.407472,-1.55524 3.676036,0.331886 2.744872,2.28335 -0.292505,0.613013 -0.550201,0.761335 -1.435727,0.826356 -0.721403,0.05297 -1.189916,-0.05412 -1.413055,-0.322983 z m 2.003914,-0.815186 c 0.23699,-0.617587 -0.134382,-1.7192 -0.579572,-1.7192 -0.469969,0 -0.887095,0.965941 -0.709838,1.643778 0.15012,0.574057 1.077257,0.628288 1.28941,0.07542 z"
       id="path4585"
       inkscape:connector-curvature="0" />
  </g>
</svg>
