<?xml version="1.0" encoding="UTF-8" standalone="no"?>
<!-- Created with Inkscape (http://www.inkscape.org/) -->

<svg
   xmlns:dc="http://purl.org/dc/elements/1.1/"
   xmlns:cc="http://creativecommons.org/ns#"
   xmlns:rdf="http://www.w3.org/1999/02/22-rdf-syntax-ns#"
   xmlns:svg="http://www.w3.org/2000/svg"
   xmlns="http://www.w3.org/2000/svg"
   xmlns:sodipodi="http://sodipodi.sourceforge.net/DTD/sodipodi-0.dtd"
   xmlns:inkscape="http://www.inkscape.org/namespaces/inkscape"
   width="34.623398mm"
   height="34.112247mm"
   viewBox="0 0 34.623398 34.112248"
   version="1.1"
   id="svg8"
   inkscape:version="0.92.2 (5c3e80d, 2017-08-06)"
   sodipodi:docname="clock.svg">
  <defs
     id="defs2" />
  <sodipodi:namedview
     id="base"
     pagecolor="#ffffff"
     bordercolor="#666666"
     borderopacity="1.0"
     inkscape:pageopacity="0.0"
     inkscape:pageshadow="2"
     inkscape:zoom="2.8"
     inkscape:cx="48.87399"
     inkscape:cy="123.73645"
     inkscape:document-units="mm"
     inkscape:current-layer="layer1"
     showgrid="false"
     inkscape:window-width="1119"
     inkscape:window-height="982"
     inkscape:window-x="1520"
     inkscape:window-y="16"
     inkscape:window-maximized="0"
     fit-margin-top="0"
     fit-margin-left="0"
     fit-margin-right="0"
     fit-margin-bottom="0" />
  <metadata
     id="metadata5">
    <rdf:RDF>
      <cc:Work
         rdf:about="">
        <dc:format>image/svg+xml</dc:format>
        <dc:type
           rdf:resource="http://purl.org/dc/dcmitype/StillImage" />
        <dc:title></dc:title>
      </cc:Work>
    </rdf:RDF>
  </metadata>
  <g
     inkscape:label="Layer 1"
     inkscape:groupmode="layer"
     id="layer1"
     transform="translate(-71.088782,-61.07292)">
    <path
       style="fill:#8017e1;fill-opacity:1;stroke-width:0.26458332"
       d="m 88.123101,94.823031 c -0.09396,-0.244869 -0.08723,-0.529378 0.01496,-0.632243 0.102189,-0.102865 1.351196,-0.37945 2.77557,-0.614635 6.068694,-1.00203 10.539829,-4.749969 12.520039,-10.494954 0.63878,-1.853231 0.76253,-2.632416 0.7582,-4.774186 -0.006,-3.040133 -0.47463,-4.980963 -1.8254,-7.562189 -2.36456,-4.518533 -7.895319,-8.094187 -12.519944,-8.094187 -1.334317,0 -2.00627,-0.479046 -1.71965,-1.225966 0.144543,-0.376673 0.460855,-0.416406 2.229301,-0.280033 3.609477,0.278342 7.153329,1.84634 9.881463,4.372108 3.96195,3.66807 5.71063,8.034175 5.44907,13.605274 -0.21185,4.51239 -1.74578,7.9973 -4.89744,11.126371 -3.010064,2.988492 -6.432784,4.604115 -10.318373,4.870569 -1.882039,0.129061 -2.20009,0.08897 -2.347791,-0.295929 z M 76.287917,90.383299 c -1.772174,-1.758402 -2.43873,-2.652096 -3.318502,-4.449329 -2.486181,-5.078859 -2.507688,-10.402762 -0.06239,-15.444164 1.652563,-3.407048 5.552473,-7.312297 6.509294,-6.518207 0.645957,0.536097 0.473652,0.931548 -0.857541,1.968115 -4.570805,3.559171 -6.805588,9.77272 -5.592564,15.549462 0.687283,3.273022 3.266933,7.328538 5.758812,9.053534 1.245666,0.862312 1.424009,1.807345 0.369364,1.957256 -0.439953,0.06254 -1.149657,-0.472731 -2.80647,-2.116667 z M 86.694712,90.142531 C 81.19172,89.347953 77.154269,85.341298 76.300887,79.827983 75.075153,71.909067 82.259224,64.753412 90.130281,66.053289 c 4.75471,0.785224 8.275554,3.749807 9.801906,8.253293 0.487233,1.437579 0.559893,2.124707 0.462513,4.373858 -0.0994,2.296013 -0.23132,2.915795 -0.945386,4.44172 -2.287526,4.888334 -7.531241,7.774573 -12.754602,7.020371 z m 3.469617,-1.564124 c 4.468715,-0.833996 7.880402,-4.300821 8.724167,-8.865162 0.545764,-2.952303 -0.562796,-6.44025 -2.810654,-8.843393 -5.219877,-5.580471 -14.108278,-4.13503 -17.399882,2.829586 -0.765587,1.619885 -0.842317,2.014067 -0.836443,4.297032 0.0085,3.300587 0.647052,4.966869 2.775296,7.241968 2.694111,2.880014 5.935768,4.014029 9.547516,3.339969 z m 0.289127,-7.219936 -3.244774,-3.252584 0.07375,-3.82502 0.07374,-3.825022 h 0.661458 0.661458 l 0.07289,3.571875 0.07289,3.571875 3.073634,3.084453 c 2.158159,2.165754 3.025485,3.209928 2.911975,3.505729 -0.340076,0.886224 -1.216708,0.316567 -4.357023,-2.831306 z"
       id="path4611"
       inkscape:connector-curvature="0" />
  </g>
</svg>
