<?xml version="1.0" encoding="UTF-8" standalone="no"?>
<!-- Created with Inkscape (http://www.inkscape.org/) -->

<svg
   xmlns:dc="http://purl.org/dc/elements/1.1/"
   xmlns:cc="http://creativecommons.org/ns#"
   xmlns:rdf="http://www.w3.org/1999/02/22-rdf-syntax-ns#"
   xmlns:svg="http://www.w3.org/2000/svg"
   xmlns="http://www.w3.org/2000/svg"
   xmlns:sodipodi="http://sodipodi.sourceforge.net/DTD/sodipodi-0.dtd"
   xmlns:inkscape="http://www.inkscape.org/namespaces/inkscape"
   width="33.072914mm"
   height="33.036789mm"
   viewBox="0 0 33.072916 33.036789"
   version="1.1"
   id="svg8"
   inkscape:version="0.92.2 (5c3e80d, 2017-08-06)"
   sodipodi:docname="digital_Transactions.svg">
  <defs
     id="defs2" />
  <sodipodi:namedview
     id="base"
     pagecolor="#ffffff"
     bordercolor="#666666"
     borderopacity="1.0"
     inkscape:pageopacity="0.0"
     inkscape:pageshadow="2"
     inkscape:zoom="2.8"
     inkscape:cx="-3.0791427"
     inkscape:cy="117.63518"
     inkscape:document-units="mm"
     inkscape:current-layer="layer1"
     showgrid="false"
     inkscape:window-width="1119"
     inkscape:window-height="982"
     inkscape:window-x="1520"
     inkscape:window-y="16"
     inkscape:window-maximized="0"
     fit-margin-top="0"
     fit-margin-left="0"
     fit-margin-right="0"
     fit-margin-bottom="0" />
  <metadata
     id="metadata5">
    <rdf:RDF>
      <cc:Work
         rdf:about="">
        <dc:format>image/svg+xml</dc:format>
        <dc:type
           rdf:resource="http://purl.org/dc/dcmitype/StillImage" />
        <dc:title></dc:title>
      </cc:Work>
    </rdf:RDF>
  </metadata>
  <g
     inkscape:label="Layer 1"
     inkscape:groupmode="layer"
     id="layer1"
     transform="translate(-84.834716,-60.534083)">
    <path
       style="fill:#8017e1;fill-opacity:1;stroke-width:0.26458332"
       d="M 95.863555,93.210767 C 94.599022,92.759777 93.912689,92.145573 93.273228,90.89266 92.80357,89.972445 92.772216,89.166037 92.772216,78.006847 V 66.102682 l -1.653646,-0.07877 c -1.566495,-0.07462 -1.653646,-0.113632 -1.653646,-0.740229 0,-0.624995 0.08924,-0.665751 1.618747,-0.739324 1.609011,-0.0774 1.621631,-0.08426 2.098183,-1.141065 0.585324,-1.298015 1.662008,-2.24206 2.972016,-2.605885 0.541184,-0.150301 2.948502,-0.268713 5.3496,-0.263137 5.68466,0.0132 6.79085,0.386531 7.96565,2.688349 0.46526,0.911604 0.50101,1.689453 0.50101,10.901438 v 9.91979 l 1.65365,0.07877 c 1.56649,0.07462 1.65364,0.113632 1.65364,0.740229 0,0.626598 -0.0872,0.66561 -1.65364,0.74023 l -1.65365,0.07877 v 2.114584 c 0,1.55298 -0.13306,2.375291 -0.50101,3.096228 -1.1836,2.31906 -2.26955,2.678211 -8.09795,2.678211 -3.123052,0 -4.806544,-0.110072 -5.507615,-0.360104 z m 10.477055,-1.564526 c 1.55666,-0.658863 1.89952,-1.303896 2.00303,-3.768275 l 0.0933,-2.221368 h -7.06576 -7.065761 l 0.0933,2.221368 c 0.102451,2.439339 0.441165,3.093574 1.94538,3.757552 1.125243,0.496691 8.828821,0.504957 9.996521,0.01071 z m -5.57798,-2.073809 c -0.836482,-0.836486 -0.0105,-2.070878 1.10044,-1.644568 0.79224,0.304014 0.37656,1.962068 -0.4919,1.962068 -0.16007,0 -0.43391,-0.142875 -0.60854,-0.3175 z m -3.761446,-6.41615 c 0.37733,-1.14332 1.797044,-2.411945 3.105986,-2.775441 1.36624,-0.379409 1.60243,-0.354917 1.89769,0.196784 0.34463,0.643936 0.0627,1.007471 -0.95199,1.227568 -0.95527,0.207209 -2.063748,0.994669 -2.470803,1.755258 -0.264132,0.493536 -0.12244,0.508647 4.769213,0.508647 h 5.04143 l -0.17487,-0.727604 c -0.51683,-2.15036 -2.60098,-4.463737 -4.5466,-5.046658 -1.32709,-0.397604 -3.27305,-0.397604 -4.60013,0 -1.945618,0.582921 -4.029768,2.896298 -4.546599,5.046658 -0.170835,0.710786 -0.147714,0.727604 1.00027,0.727604 1.105179,0 1.193083,-0.05435 1.476403,-0.912816 z m 0.986648,-6.158424 c 2.978688,-1.363689 6.698078,-0.704871 9.302078,1.647686 l 1.09272,0.987213 v -1.614969 c 0,-1.611938 -0.002,-1.616304 -1.12448,-2.326646 -3.46056,-2.190171 -8.313395,-2.190171 -11.773955,0 -1.12237,0.710342 -1.124479,0.714708 -1.124479,2.326646 v 1.614969 l 1.092726,-0.987213 c 0.600999,-0.542967 1.741925,-1.284425 2.53539,-1.647686 z m -1.607301,-3.578239 c 1.734567,-0.821498 1.95742,-0.859896 4.990639,-0.859896 3.03323,0 3.25608,0.0384 4.99065,0.859896 0.9986,0.472943 1.8618,0.859896 1.91823,0.859896 0.0564,0 0.10258,-1.845469 0.10258,-4.101042 v -4.101041 h -7.01146 -7.011454 v 4.101041 c 0,2.255573 0.04616,4.101042 0.102586,4.101042 0.05642,0 0.919625,-0.386953 1.918229,-0.859896 z m 11.737519,-9.280442 c 0,-0.476666 -1.02649,-1.403891 -1.93546,-1.748288 -0.96823,-0.366854 -8.654601,-0.366854 -9.622837,0 -0.908963,0.344397 -1.935454,1.271622 -1.935454,1.748288 0,0.282114 1.320328,0.350755 6.746871,0.350755 5.42655,0 6.74688,-0.06864 6.74688,-0.350755 z m 5.73264,23.986865 c -0.40236,-0.402355 -0.11372,-1.058058 0.93703,-2.1287 l 1.11342,-1.134494 -1.13867,-1.160226 c -1.18245,-1.204821 -1.36295,-2.061424 -0.47059,-2.233276 0.51733,-0.09963 3.61575,2.788899 3.61575,3.370811 0,0.179607 -0.67297,1.032095 -1.49548,1.894417 -1.3781,1.444795 -2.11035,1.842577 -2.56146,1.391468 z M 86.341326,67.167073 c -0.828635,-0.868738 -1.50661,-1.726475 -1.50661,-1.906083 0,-0.581912 3.098424,-3.47044 3.615752,-3.370811 0.892356,0.171852 0.711855,1.028456 -0.470586,2.233276 l -1.138676,1.160227 1.138676,1.160226 c 1.208994,1.231876 1.366343,2.087273 0.409262,2.224877 -0.373029,0.05363 -1.00938,-0.413018 -2.047818,-1.501712 z"
       id="path4728"
       inkscape:connector-curvature="0" />
  </g>
</svg>
