<?xml version="1.0" encoding="UTF-8" standalone="no"?>
<!-- Created with Inkscape (http://www.inkscape.org/) -->

<svg
   xmlns:dc="http://purl.org/dc/elements/1.1/"
   xmlns:cc="http://creativecommons.org/ns#"
   xmlns:rdf="http://www.w3.org/1999/02/22-rdf-syntax-ns#"
   xmlns:svg="http://www.w3.org/2000/svg"
   xmlns="http://www.w3.org/2000/svg"
   xmlns:sodipodi="http://sodipodi.sourceforge.net/DTD/sodipodi-0.dtd"
   xmlns:inkscape="http://www.inkscape.org/namespaces/inkscape"
   width="16.572744mm"
   height="16.201897mm"
   viewBox="0 0 16.572745 16.201897"
   version="1.1"
   id="svg8"
   inkscape:version="0.92.2 (5c3e80d, 2017-08-06)"
   sodipodi:docname="education-eov.svg">
  <defs
     id="defs2" />
  <sodipodi:namedview
     id="base"
     pagecolor="#ffffff"
     bordercolor="#666666"
     borderopacity="1.0"
     inkscape:pageopacity="0.0"
     inkscape:pageshadow="2"
     inkscape:zoom="2.8"
     inkscape:cx="-20.593245"
     inkscape:cy="66.471093"
     inkscape:document-units="mm"
     inkscape:current-layer="layer1"
     showgrid="false"
     inkscape:window-width="1119"
     inkscape:window-height="982"
     inkscape:window-x="1520"
     inkscape:window-y="16"
     inkscape:window-maximized="0"
     fit-margin-top="0"
     fit-margin-left="0"
     fit-margin-right="0"
     fit-margin-bottom="0" />
  <metadata
     id="metadata5">
    <rdf:RDF>
      <cc:Work
         rdf:about="">
        <dc:format>image/svg+xml</dc:format>
        <dc:type
           rdf:resource="http://purl.org/dc/dcmitype/StillImage" />
        <dc:title></dc:title>
      </cc:Work>
    </rdf:RDF>
  </metadata>
  <g
     inkscape:label="Layer 1"
     inkscape:groupmode="layer"
     id="layer1"
     transform="translate(-89.468655,-63.831812)">
    <path
       style="fill:#8017e1;fill-opacity:1;stroke-width:0.26458332"
       d="m 89.901815,78.028982 c 0,-1.862974 0.05469,-2.059415 0.773397,-2.778125 l 0.773397,-0.773398 h 6.482344 6.482347 l 0.81405,0.684978 c 0.78269,0.658589 0.81405,0.765618 0.81405,2.778125 0,1.219043 -0.11049,2.093147 -0.26459,2.093147 -0.15078,0 -0.26458,-0.783979 -0.26458,-1.822772 0,-1.40047 -0.11718,-1.967485 -0.50579,-2.447395 l -0.50579,-0.624624 h -6.529044 -6.529045 l -0.50579,0.624624 c -0.388608,0.47991 -0.50579,1.046925 -0.50579,2.447395 0,1.038793 -0.113798,1.822772 -0.264583,1.822772 -0.153109,0 -0.264583,-0.844631 -0.264583,-2.004727 z m 2.910416,0.68181 c 0,-0.727604 0.119063,-1.322916 0.264584,-1.322916 0.14552,0 0.264583,0.595312 0.264583,1.322916 0,0.727605 -0.119063,1.322917 -0.264583,1.322917 -0.145521,0 -0.264584,-0.595312 -0.264584,-1.322917 z m 9.789579,0 c 0,-0.727604 0.11907,-1.322916 0.26459,-1.322916 0.14552,0 0.26458,0.595312 0.26458,1.322916 0,0.727605 -0.11906,1.322917 -0.26458,1.322917 -0.14552,0 -0.26459,-0.595312 -0.26459,-1.322917 z m -7.011454,-5.665164 c -1.405535,-0.624694 -2.778125,-2.65825 -2.778125,-4.11592 0,-0.850905 0.468612,-0.625186 0.668977,0.322231 0.434524,2.054624 2.321493,3.63802 4.33551,3.63802 1.940965,0 3.776032,-1.56972 4.195552,-3.588885 0.25597,-1.231979 0.76156,-1.261865 0.63232,-0.03738 -0.13982,1.324769 -1.12461,2.823978 -2.31214,3.519916 -1.243945,0.729003 -3.420777,0.84928 -4.742094,0.262016 z m 8.540194,-0.831796 c -0.0808,-0.08083 -0.086,-1.330985 -0.0114,-2.778125 0.0746,-1.44714 0.0708,-2.631164 -0.008,-2.631164 -0.0791,0 -1.54742,0.303466 -3.26292,0.674368 l -3.119092,0.674369 -3.847386,-0.839714 c -3.760554,-0.820762 -4.745608,-1.1822 -4.32162,-1.585699 0.115308,-0.109736 1.982197,-0.581241 4.148642,-1.047788 l 3.93899,-0.848267 3.601636,0.737733 c 1.9809,0.405753 3.8792,0.837225 4.21845,0.958827 0.75559,0.270835 0.62881,0.810196 -0.23956,1.019133 -0.62683,0.150822 -0.64184,0.216918 -0.64184,2.826237 0,2.511803 -0.10838,3.187352 -0.45564,2.84009 z m -3.10385,-5.416631 c 1.37564,-0.29508 2.67975,-0.608936 2.89803,-0.697458 0.46671,-0.189267 -4.733264,-1.391171 -6.085416,-1.406562 -1.150263,-0.01309 -6.404438,1.084605 -6.20153,1.29562 0.243601,0.253332 4.935959,1.295262 5.949335,1.321038 0.516136,0.01313 2.063948,-0.217559 3.439581,-0.512638 z m -4.102399,5.115305 c -1.3506,-0.367301 -2.52457,-1.752196 -2.52457,-2.978157 0,-0.820752 0.463665,-0.649102 0.659888,0.244292 0.09502,0.432628 0.530335,1.087472 0.967364,1.455208 1.685013,1.417844 4.160187,0.415786 4.510677,-1.826116 0.11825,-0.756459 0.61777,-0.498049 0.55541,0.28733 -0.14409,1.814808 -2.356752,3.310228 -4.168769,2.817443 z m -0.264313,-1.988422 c -0.512119,-0.440506 -0.695405,-0.814748 -0.624978,-1.276108 0.09752,-0.638817 0.109738,-0.634033 0.570231,0.223202 0.379498,0.706457 0.608101,0.860089 1.181101,0.79375 0.469595,-0.05437 0.829063,-0.33073 1.060117,-0.815027 0.192277,-0.403022 0.461048,-0.663886 0.597267,-0.579698 0.686014,0.423983 -0.235052,1.846746 -1.368739,2.11427 -0.504026,0.118939 -0.885959,-0.0053 -1.414999,-0.460389 z"
       id="path4650"
       inkscape:connector-curvature="0" />
  </g>
</svg>
