<?xml version="1.0" encoding="UTF-8" standalone="no"?>
<!-- Created with Inkscape (http://www.inkscape.org/) -->

<svg
   xmlns:dc="http://purl.org/dc/elements/1.1/"
   xmlns:cc="http://creativecommons.org/ns#"
   xmlns:rdf="http://www.w3.org/1999/02/22-rdf-syntax-ns#"
   xmlns:svg="http://www.w3.org/2000/svg"
   xmlns="http://www.w3.org/2000/svg"
   xmlns:sodipodi="http://sodipodi.sourceforge.net/DTD/sodipodi-0.dtd"
   xmlns:inkscape="http://www.inkscape.org/namespaces/inkscape"
   width="22.460459mm"
   height="34.791378mm"
   viewBox="0 0 22.46046 34.791378"
   version="1.1"
   id="svg8"
   inkscape:version="0.92.2 (5c3e80d, 2017-08-06)"
   sodipodi:docname="idea.svg">
  <defs
     id="defs2" />
  <sodipodi:namedview
     id="base"
     pagecolor="#ffffff"
     bordercolor="#666666"
     borderopacity="1.0"
     inkscape:pageopacity="0.0"
     inkscape:pageshadow="2"
     inkscape:zoom="2.8"
     inkscape:cx="64.520468"
     inkscape:cy="22.843195"
     inkscape:document-units="mm"
     inkscape:current-layer="layer1"
     showgrid="false"
     inkscape:window-width="1119"
     inkscape:window-height="982"
     inkscape:window-x="1520"
     inkscape:window-y="16"
     inkscape:window-maximized="0"
     fit-margin-top="0"
     fit-margin-left="0"
     fit-margin-right="0"
     fit-margin-bottom="0" />
  <metadata
     id="metadata5">
    <rdf:RDF>
      <cc:Work
         rdf:about="">
        <dc:format>image/svg+xml</dc:format>
        <dc:type
           rdf:resource="http://purl.org/dc/dcmitype/StillImage" />
        <dc:title></dc:title>
      </cc:Work>
    </rdf:RDF>
  </metadata>
  <g
     inkscape:label="Layer 1"
     inkscape:groupmode="layer"
     id="layer1"
     transform="translate(-66.948985,-33.699114)">
    <path
       style="fill:#8017e1;fill-opacity:1;stroke-width:0.26458332"
       d="m 75.067407,68.086041 c -0.636925,-0.398222 -0.854481,-0.709152 -0.79375,-1.134428 0.105526,-0.738952 0.897899,-0.906737 1.539595,-0.326011 0.505648,0.457605 1.586775,0.342336 1.586775,-0.16918 0,-0.521899 1.18978,-0.101949 1.26842,0.447704 0.19191,1.341451 -2.12802,2.102885 -3.60104,1.181915 z m -2.694464,-3.048595 c -0.26278,-0.316633 -0.26278,-0.477118 0,-0.79375 0.264592,-0.318813 1.07123,-0.396875 4.101042,-0.396875 3.029812,0 3.836452,0.07806 4.101042,0.396875 0.26278,0.316632 0.26278,0.477117 0,0.79375 -0.26459,0.318812 -1.07123,0.396875 -4.101042,0.396875 -3.029812,0 -3.83645,-0.07806 -4.101042,-0.396875 z m -0.06501,-2.315104 c -0.330378,-0.898388 0.06347,-0.992188 4.166051,-0.992188 4.102583,0 4.496433,0.0938 4.166053,0.992188 -0.17442,0.474281 -8.157689,0.474281 -8.332104,0 z m 0.06501,-2.182813 c -0.26278,-0.316632 -0.26278,-0.477118 0,-0.79375 0.264592,-0.318813 1.07123,-0.396875 4.101042,-0.396875 3.029812,0 3.836452,0.07806 4.101042,0.396875 0.26278,0.316632 0.26278,0.477118 0,0.79375 -0.26459,0.318812 -1.07123,0.396875 -4.101042,0.396875 -3.029812,0 -3.83645,-0.07806 -4.101042,-0.396875 z M 72.268959,58.13664 c -0.08833,-0.230184 -0.160599,-0.786716 -0.160599,-1.23674 0,-0.654878 -0.370395,-1.200214 -1.855356,-2.731661 -1.140847,-1.176561 -2.134301,-2.508881 -2.579688,-3.459615 -0.638019,-1.361933 -0.724331,-1.86146 -0.724331,-4.192012 0,-2.389103 0.07509,-2.798778 0.773913,-4.222064 0.955676,-1.94643 2.604958,-3.584073 4.592478,-4.560068 1.351609,-0.663725 1.794655,-0.742868 4.158609,-0.742868 2.363952,0 2.807002,0.07914 4.158612,0.742868 1.99327,0.97882 3.78071,2.753124 4.65701,4.622793 0.62126,1.325488 0.70938,1.842189 0.70938,4.159339 0,2.330552 -0.0863,2.830079 -0.72433,4.192012 -0.44539,0.950734 -1.43884,2.283054 -2.57969,3.459615 -1.48496,1.531447 -1.85536,2.076783 -1.85536,2.731661 0,1.220513 -0.25065,1.655254 -0.95435,1.655254 -0.58891,0 -0.63315,-0.0989 -0.63315,-1.415511 0,-1.605002 0.58179,-2.583039 2.77788,-4.669906 1.76794,-1.680006 2.50796,-3.361957 2.5112,-5.707555 0.003,-2.420908 -0.56686,-4.039903 -1.9741,-5.605099 -1.60728,-1.787677 -3.23238,-2.542758 -5.735705,-2.665024 -1.762023,-0.08606 -2.232596,-0.0052 -3.637354,0.625248 -3.50147,1.571367 -5.424979,5.159611 -4.743678,8.849176 0.363265,1.967253 0.814495,2.755695 2.728657,4.767838 2.290124,2.407349 2.516853,2.805927 2.516853,4.424496 0,1.29639 -0.04532,1.396337 -0.633151,1.396337 -0.348233,0 -0.70542,-0.188331 -0.79375,-0.418514 z m 13.698548,-4.46289 c -0.0809,-0.210918 0.22161,-1.133652 0.67233,-2.050521 2.21432,-4.504497 1.47367,-9.285449 -2.00318,-12.93056 -1.77921,-1.865313 -3.92971,-2.998234 -6.45786,-3.402108 -1.778878,-0.284177 -4.169739,-0.05514 -5.602664,0.536707 -0.954527,0.394255 -1.585805,0.132913 -1.478518,-0.612089 0.203318,-1.411829 5.940151,-2.03414 9.270192,-1.005596 0.93533,0.288894 2.41041,0.984035 3.27796,1.544758 5.6682,3.663535 7.46626,11.514198 3.99503,17.443 -0.52702,0.900141 -1.4138,1.15262 -1.67329,0.476409 z M 72.175772,51.350869 c -1.682313,-1.79074 -2.222773,-5.326282 -1.175957,-7.692783 0.668521,-1.511304 1.721272,-2.618289 2.284478,-2.402167 0.58087,0.222901 0.511148,1.252102 -0.123747,1.826673 -0.747171,0.676181 -1.40155,3.075222 -1.186315,4.349189 0.09552,0.565379 0.528049,1.586753 0.961175,2.269722 0.433126,0.682969 0.750283,1.435022 0.704794,1.671231 -0.127448,0.661781 -0.832059,0.651261 -1.464428,-0.02187 z"
       id="path4676"
       inkscape:connector-curvature="0" />
  </g>
</svg>
