<?xml version="1.0" encoding="UTF-8" standalone="no"?>
<!-- Created with Inkscape (http://www.inkscape.org/) -->

<svg
   xmlns:dc="http://purl.org/dc/elements/1.1/"
   xmlns:cc="http://creativecommons.org/ns#"
   xmlns:rdf="http://www.w3.org/1999/02/22-rdf-syntax-ns#"
   xmlns:svg="http://www.w3.org/2000/svg"
   xmlns="http://www.w3.org/2000/svg"
   xmlns:sodipodi="http://sodipodi.sourceforge.net/DTD/sodipodi-0.dtd"
   xmlns:inkscape="http://www.inkscape.org/namespaces/inkscape"
   width="23.254539mm"
   height="35.624393mm"
   viewBox="0 0 23.254541 35.624393"
   version="1.1"
   id="svg8"
   inkscape:version="0.92.2 (5c3e80d, 2017-08-06)"
   sodipodi:docname="mobile.svg">
  <defs
     id="defs2" />
  <sodipodi:namedview
     id="base"
     pagecolor="#ffffff"
     bordercolor="#666666"
     borderopacity="1.0"
     inkscape:pageopacity="0.0"
     inkscape:pageshadow="2"
     inkscape:zoom="2.8"
     inkscape:cx="10.026051"
     inkscape:cy="-3.4169738"
     inkscape:document-units="mm"
     inkscape:current-layer="layer1"
     showgrid="false"
     inkscape:window-width="1119"
     inkscape:window-height="982"
     inkscape:window-x="1520"
     inkscape:window-y="16"
     inkscape:window-maximized="0"
     fit-margin-top="0"
     fit-margin-left="0"
     fit-margin-right="0"
     fit-margin-bottom="0" />
  <metadata
     id="metadata5">
    <rdf:RDF>
      <cc:Work
         rdf:about="">
        <dc:format>image/svg+xml</dc:format>
        <dc:type
           rdf:resource="http://purl.org/dc/dcmitype/StillImage" />
        <dc:title></dc:title>
      </cc:Work>
    </rdf:RDF>
  </metadata>
  <g
     inkscape:label="Layer 1"
     inkscape:groupmode="layer"
     id="layer1"
     transform="translate(-81.3673,-25.918095)">
    <path
       style="fill:#8017e1;fill-opacity:1;stroke-width:0.26458332"
       d="M 84.674592,61.30276 C 83.437281,60.85882 82.276696,59.87922 81.801409,58.877628 81.415574,58.06454 81.3673,56.367748 81.3673,43.619029 c 0,-14.119684 0.0088,-14.359358 0.560357,-15.340802 0.308804,-0.549442 1.051153,-1.278269 1.653646,-1.623524 1.066754,-0.611298 1.273094,-0.628628 8.501622,-0.714038 8.053595,-0.09516 9.661525,0.07687 10.964265,1.173053 1.62501,1.367358 1.63076,1.430706 1.54706,17.03844 -0.0854,15.932352 0.008,15.198765 -2.11383,16.603732 l -1.09712,0.72648 -7.957481,0.0526 c -5.146622,0.034 -8.237857,-0.048 -8.751227,-0.2322 z m 17.391638,-2.272711 0.86461,-0.864817 0.0732,-13.359687 0.0732,-13.359688 -10.12739,0.0693 -10.127394,0.0693 -0.07588,12.303125 c -0.04174,6.766718 -0.0072,12.686572 0.07667,13.155231 0.172231,0.961999 1.266313,2.390151 2.094296,2.733778 0.302911,0.125719 4.090734,0.203759 8.417385,0.173429 l 7.866643,-0.0551 z M 91.253996,58.235336 c -1.62739,-1.318236 -1.46486,-3.970605 0.292369,-4.77125 2.108489,-0.960694 4.108435,0.2378 4.108435,2.46203 0,1.712005 -1.037658,2.780742 -2.691627,2.772241 -0.682937,-0.0035 -1.372522,-0.19032 -1.709177,-0.463021 z m 2.893925,-1.927481 c 0.292852,-1.119868 -1.329804,-2.069431 -2.144371,-1.254864 -0.919385,0.919385 0.225285,2.551888 1.410629,2.01181 0.33455,-0.152432 0.664733,-0.493056 0.733742,-0.756946 z M 83.924939,51.648686 c -0.327059,-0.327059 -0.179592,-1.088684 0.242125,-1.250512 0.546323,-0.209644 16.872896,-0.209644 17.419226,0 0.23018,0.08833 0.41851,0.445517 0.41851,0.79375 v 0.633151 h -8.951736 c -4.923455,0 -9.031111,-0.07937 -9.128125,-0.176389 z M 102.79855,29.503863 c 0,-0.587107 -1.26634,-1.67841 -2.1535,-1.855842 -0.45268,-0.09054 -4.026691,-0.164613 -7.942238,-0.164613 -7.638105,0 -8.451034,0.118131 -9.316558,1.353839 -0.2373,0.338793 -0.431454,0.708558 -0.431454,0.821699 0,0.113142 4.464844,0.205712 9.921875,0.205712 8.202085,0 9.921875,-0.06254 9.921875,-0.360795 z"
       id="path4702"
       inkscape:connector-curvature="0" />
  </g>
</svg>
