<?xml version="1.0" encoding="UTF-8" standalone="no"?>
<!-- Created with Inkscape (http://www.inkscape.org/) -->

<svg
   xmlns:dc="http://purl.org/dc/elements/1.1/"
   xmlns:cc="http://creativecommons.org/ns#"
   xmlns:rdf="http://www.w3.org/1999/02/22-rdf-syntax-ns#"
   xmlns:svg="http://www.w3.org/2000/svg"
   xmlns="http://www.w3.org/2000/svg"
   xmlns:sodipodi="http://sodipodi.sourceforge.net/DTD/sodipodi-0.dtd"
   xmlns:inkscape="http://www.inkscape.org/namespaces/inkscape"
   width="33.031067mm"
   height="21.925659mm"
   viewBox="0 0 33.031069 21.925659"
   version="1.1"
   id="svg8"
   inkscape:version="0.92.2 (5c3e80d, 2017-08-06)"
   sodipodi:docname="Money_Savings.svg">
  <defs
     id="defs2" />
  <sodipodi:namedview
     id="base"
     pagecolor="#ffffff"
     bordercolor="#666666"
     borderopacity="1.0"
     inkscape:pageopacity="0.0"
     inkscape:pageshadow="2"
     inkscape:zoom="2.8"
     inkscape:cx="8.1721473"
     inkscape:cy="17.702455"
     inkscape:document-units="mm"
     inkscape:current-layer="layer1"
     showgrid="false"
     inkscape:window-width="1119"
     inkscape:window-height="982"
     inkscape:window-x="1520"
     inkscape:window-y="16"
     inkscape:window-maximized="0"
     fit-margin-top="0"
     fit-margin-left="0"
     fit-margin-right="0"
     fit-margin-bottom="0" />
  <metadata
     id="metadata5">
    <rdf:RDF>
      <cc:Work
         rdf:about="">
        <dc:format>image/svg+xml</dc:format>
        <dc:type
           rdf:resource="http://purl.org/dc/dcmitype/StillImage" />
        <dc:title></dc:title>
      </cc:Work>
    </rdf:RDF>
  </metadata>
  <g
     inkscape:label="Layer 1"
     inkscape:groupmode="layer"
     id="layer1"
     transform="translate(-81.857812,-45.20468)">
    <path
       style="fill:#8017e1;stroke-width:0.26458332;fill-opacity:1"
       d="M 88.48392,66.831504 C 88.336322,66.643478 87.535964,64.45756 86.705348,61.973913 l -1.510212,-4.515724 -0.798137,0.117142 c -1.040275,0.15268 -1.964862,-0.360248 -2.357336,-1.307764 -0.242998,-0.586648 -0.242568,-0.844965 0.0019,-1.139527 0.426624,-0.514051 0.98689,-0.255082 1.188829,0.549507 0.132296,0.527108 0.306498,0.642421 0.870414,0.576168 0.654623,-0.07691 0.730677,-0.223365 1.06401,-2.048949 0.509464,-2.790211 1.397863,-4.488379 3.24065,-6.194474 2.742581,-2.539146 3.256396,-2.652009 12.583774,-2.7641 9.653,-0.116004 9.49829,-0.170357 6.97997,2.452214 -0.91135,0.949082 -1.82047,1.725605 -2.02025,1.725605 -0.75224,0 -0.67947,-0.830431 0.14753,-1.683682 0.45582,-0.470279 0.82875,-0.938681 0.82875,-1.040894 0,-0.102212 -2.83589,-0.185841 -6.30197,-0.185841 -7.76268,0 -8.940019,0.257953 -11.387807,2.495046 -1.290529,1.179446 -2.11108,2.586491 -2.583293,4.429717 -0.556886,2.173739 -0.353579,3.458587 1.311573,8.288779 1.356606,3.935179 1.375304,3.96944 2.210447,4.0504 0.801526,0.0777 0.846284,0.03291 0.925309,-0.926043 0.09505,-1.153412 0.158243,-1.165779 3.12575,-0.611762 1.664056,0.310669 8.938541,0.19954 10.613121,-0.162133 0.5811,-0.125504 0.78482,0.0021 1.27835,0.800642 0.48852,0.790441 0.73896,0.949937 1.49156,0.949937 h 0.90446 v -1.833184 -1.833185 l 2.5265,-3.509112 c 2.18641,-3.036767 2.51585,-3.632333 2.44739,-4.424529 -0.0726,-0.84053 -0.17952,-0.944569 -1.3067,-1.271787 -1.30517,-0.378892 -3.93177,-2.495464 -3.93177,-3.168317 0,-0.854786 0.82742,-0.6474 2.14563,0.537786 0.74679,0.671423 1.67085,1.291323 2.05348,1.377555 2.48497,0.560036 2.27532,0.366042 2.36241,2.185996 l 0.0792,1.655633 -2.51542,3.522513 -2.51542,3.522513 -0.0774,2.214371 -0.0774,2.214372 -1.71979,0.08262 c -1.63955,0.07876 -1.75166,0.04469 -2.40265,-0.730149 l -0.68285,-0.812768 -6.250782,-0.0636 -6.250787,-0.0636 -0.07782,0.79375 c -0.07694,0.784805 -0.09748,0.794621 -1.822114,0.871035 -1.190267,0.05274 -1.829534,-0.0313 -2.012656,-0.264583 z m 3.682819,-5.12494 c -4.353716,-2.169549 -5.18682,-8.12581 -1.590949,-11.374463 1.426745,-1.288978 2.673933,-1.778995 4.575498,-1.797702 2.13669,-0.02102 3.430115,0.471223 4.933672,1.877622 3.68474,3.446645 2.64365,9.355075 -2.023255,11.482506 -1.629679,0.742895 -4.190854,0.661232 -5.894966,-0.187963 z m 5.436832,-1.05039 c 3.657869,-1.528353 4.564709,-6.401282 1.70983,-9.187704 -2.152725,-2.1011 -5.028212,-2.303259 -7.425785,-0.522065 -2.483508,1.845037 -3.016713,5.091046 -1.262217,7.684046 1.491822,2.20479 4.476167,3.071128 6.978172,2.025723 z m -5.95651,-5.828316 c 0.166833,-1.480134 1.178698,-2.645754 2.637834,-3.038659 1.140562,-0.307122 1.527851,-0.17242 1.527851,0.531398 0,0.342628 -0.26728,0.534248 -0.914577,0.655681 -1.023791,0.192065 -1.871318,1.099305 -2.13086,2.280991 -0.122024,0.555571 -0.328372,0.781325 -0.714162,0.781325 -0.487854,0 -0.528795,-0.122064 -0.406086,-1.210736 z m 15.380979,-1.813415 c -0.26343,-0.686507 0.10581,-1.25391 0.75592,-1.161594 0.43728,0.0621 0.59649,0.261252 0.59649,0.746162 0,0.484909 -0.15921,0.684066 -0.59649,0.746161 -0.35779,0.05081 -0.6603,-0.08154 -0.75592,-0.330729 z"
       id="path4754"
       inkscape:connector-curvature="0" />
  </g>
</svg>
