<?xml version="1.0" encoding="UTF-8" standalone="no"?>
<!-- Created with Inkscape (http://www.inkscape.org/) -->

<svg
   xmlns:dc="http://purl.org/dc/elements/1.1/"
   xmlns:cc="http://creativecommons.org/ns#"
   xmlns:rdf="http://www.w3.org/1999/02/22-rdf-syntax-ns#"
   xmlns:svg="http://www.w3.org/2000/svg"
   xmlns="http://www.w3.org/2000/svg"
   xmlns:sodipodi="http://sodipodi.sourceforge.net/DTD/sodipodi-0.dtd"
   xmlns:inkscape="http://www.inkscape.org/namespaces/inkscape"
   width="35.391579mm"
   height="26.874239mm"
   viewBox="0 0 35.391581 26.874239"
   version="1.1"
   id="svg8"
   inkscape:version="0.92.2 (5c3e80d, 2017-08-06)"
   sodipodi:docname="multiple_People.svg">
  <defs
     id="defs2" />
  <sodipodi:namedview
     id="base"
     pagecolor="#ffffff"
     bordercolor="#666666"
     borderopacity="1.0"
     inkscape:pageopacity="0.0"
     inkscape:pageshadow="2"
     inkscape:zoom="2.8"
     inkscape:cx="84.778001"
     inkscape:cy="-18.705603"
     inkscape:document-units="mm"
     inkscape:current-layer="layer1"
     showgrid="false"
     inkscape:window-width="1119"
     inkscape:window-height="982"
     inkscape:window-x="1520"
     inkscape:window-y="16"
     inkscape:window-maximized="0"
     fit-margin-top="0"
     fit-margin-left="0"
     fit-margin-right="0"
     fit-margin-bottom="0" />
  <metadata
     id="metadata5">
    <rdf:RDF>
      <cc:Work
         rdf:about="">
        <dc:format>image/svg+xml</dc:format>
        <dc:type
           rdf:resource="http://purl.org/dc/dcmitype/StillImage" />
        <dc:title></dc:title>
      </cc:Work>
    </rdf:RDF>
  </metadata>
  <g
     inkscape:label="Layer 1"
     inkscape:groupmode="layer"
     id="layer1"
     transform="translate(-61.58918,-30.623134)">
    <path
       style="fill:#8017e1;fill-opacity:1;stroke-width:0.26458332"
       d="m 63.917291,57.314555 c -0.15944,-0.106913 -0.795499,-1.538176 -1.413462,-3.180585 -0.904781,-2.404708 -1.060989,-3.061604 -0.80219,-3.373438 0.466406,-0.561984 7.452524,-0.565088 7.918586,-0.0035 0.254935,0.307178 0.09109,0.992234 -0.821377,3.434309 -1.14278,3.058464 -1.596719,3.655933 -2.267799,2.984852 -0.304027,-0.304025 -0.234692,-0.701011 0.443849,-2.541312 0.442289,-1.199552 0.804161,-2.291943 0.804161,-2.427536 0,-0.135594 -0.9525,-0.246534 -2.116667,-0.246534 -1.164166,0 -2.116666,0.11094 -2.116666,0.246534 0,0.135593 0.359598,1.221817 0.799107,2.413831 0.614427,1.666414 0.729235,2.251487 0.49677,2.531591 -0.341267,0.411202 -0.508676,0.440508 -0.924312,0.161806 z m 8.995834,0 c -0.159441,-0.106913 -0.795499,-1.538176 -1.413463,-3.180585 -0.904781,-2.404708 -1.060988,-3.061604 -0.802189,-3.373438 0.466405,-0.561984 7.452523,-0.565088 7.918585,-0.0035 0.254935,0.307178 0.09109,0.992234 -0.821377,3.434309 -1.14278,3.058464 -1.596718,3.655933 -2.267799,2.984852 -0.304027,-0.304025 -0.234692,-0.701011 0.44385,-2.541312 0.442288,-1.199552 0.80416,-2.291943 0.80416,-2.427536 0,-0.135594 -0.9525,-0.246534 -2.116666,-0.246534 -1.164167,0 -2.116667,0.11094 -2.116667,0.246534 0,0.135593 0.359598,1.221817 0.799108,2.413831 0.614426,1.666414 0.729234,2.251487 0.49677,2.531591 -0.341268,0.411202 -0.508677,0.440508 -0.924312,0.161806 z m 9.260416,0 c -0.15944,-0.106913 -0.795498,-1.538176 -1.413462,-3.180585 -0.904781,-2.404708 -1.060989,-3.061604 -0.80219,-3.373438 0.466406,-0.561984 7.452524,-0.565088 7.918586,-0.0035 0.254935,0.307178 0.09109,0.992234 -0.821377,3.434309 -1.14278,3.058464 -1.596719,3.655933 -2.267799,2.984852 -0.304027,-0.304025 -0.234692,-0.701011 0.443849,-2.541312 0.442289,-1.199552 0.804161,-2.291943 0.804161,-2.427536 0,-0.135594 -0.9525,-0.246534 -2.116667,-0.246534 -1.164166,0 -2.116666,0.11094 -2.116666,0.246534 0,0.135593 0.359598,1.221817 0.799107,2.413831 0.614427,1.666414 0.729235,2.251487 0.49677,2.531591 -0.341267,0.411202 -0.508676,0.440508 -0.924312,0.161806 z m 8.995833,0 c -0.159441,-0.106913 -0.795499,-1.538176 -1.413462,-3.180585 -0.90478,-2.404708 -1.060988,-3.061604 -0.802188,-3.373438 0.466405,-0.561984 7.452521,-0.565088 7.918581,-0.0035 0.25494,0.307178 0.0911,0.992234 -0.82137,3.434309 -1.14278,3.058464 -1.596722,3.655933 -2.267803,2.984852 -0.304028,-0.304025 -0.234691,-0.701011 0.443849,-2.541312 0.442284,-1.199552 0.804164,-2.291943 0.804164,-2.427536 0,-0.135594 -0.952503,-0.246534 -2.116669,-0.246534 -1.164167,0 -2.116667,0.11094 -2.116667,0.246534 0,0.135593 0.359598,1.221817 0.799108,2.413831 0.614426,1.666414 0.729234,2.251487 0.496768,2.531591 -0.341265,0.411202 -0.508674,0.440508 -0.924311,0.161806 z m -27.074182,-8.41999 c -0.649799,-0.54677 -0.81405,-0.890796 -0.81405,-1.705037 0,-1.515088 0.933932,-2.49275 2.38125,-2.49275 1.447319,0 2.38125,0.977662 2.38125,2.49275 0,0.814241 -0.164251,1.158267 -0.81405,1.705037 -0.458545,0.38584 -1.142959,0.684978 -1.5672,0.684978 -0.42424,0 -1.108654,-0.299138 -1.5672,-0.684978 z m 2.325369,-1.35871 c 0.336924,-0.602051 -0.09206,-1.395895 -0.754331,-1.395895 -0.668537,0 -1.094319,0.76847 -0.765844,1.38223 0.320672,0.599181 1.188139,0.606979 1.520175,0.01367 z m 6.670465,1.35871 c -0.649799,-0.54677 -0.81405,-0.890796 -0.81405,-1.705037 0,-1.515088 0.933931,-2.49275 2.38125,-2.49275 1.447318,0 2.38125,0.977662 2.38125,2.49275 0,0.814241 -0.164252,1.158267 -0.81405,1.705037 -0.458546,0.38584 -1.14296,0.684978 -1.5672,0.684978 -0.424241,0 -1.108655,-0.299138 -1.5672,-0.684978 z m 2.325368,-1.35871 c 0.336925,-0.602051 -0.09206,-1.395895 -0.75433,-1.395895 -0.668538,0 -1.094319,0.76847 -0.765845,1.38223 0.320672,0.599181 1.18814,0.606979 1.520175,0.01367 z m 6.935048,1.35871 c -0.649798,-0.54677 -0.81405,-0.890796 -0.81405,-1.705037 0,-1.515088 0.933932,-2.49275 2.38125,-2.49275 1.447319,0 2.38125,0.977662 2.38125,2.49275 0,0.814241 -0.164251,1.158267 -0.81405,1.705037 -0.458545,0.38584 -1.142959,0.684978 -1.5672,0.684978 -0.42424,0 -1.108654,-0.299138 -1.5672,-0.684978 z m 2.325369,-1.35871 c 0.336924,-0.602051 -0.09206,-1.395895 -0.754331,-1.395895 -0.668537,0 -1.094319,0.76847 -0.765844,1.38223 0.320672,0.599181 1.188139,0.606979 1.520175,0.01367 z m 6.670466,1.35871 c -0.649801,-0.54677 -0.814051,-0.890796 -0.814051,-1.705037 0,-1.515088 0.933931,-2.49275 2.38125,-2.49275 1.447318,0 2.381249,0.977662 2.381249,2.49275 0,0.814241 -0.16425,1.158267 -0.814051,1.705037 -0.458544,0.38584 -1.142957,0.684978 -1.567198,0.684978 -0.424241,0 -1.108655,-0.299138 -1.567199,-0.684978 z m 2.325368,-1.35871 c 0.336923,-0.602051 -0.09206,-1.395895 -0.75433,-1.395895 -0.668539,0 -1.09432,0.76847 -0.765845,1.38223 0.32067,0.599181 1.188138,0.606979 1.520175,0.01367 z M 63.917291,43.291638 c -0.15944,-0.106913 -0.795499,-1.538176 -1.413462,-3.180585 -0.904781,-2.404708 -1.060989,-3.061604 -0.80219,-3.373437 0.466406,-0.561985 7.452524,-0.565089 7.918586,-0.0035 0.254935,0.307178 0.09109,0.992235 -0.821377,3.43431 -1.14278,3.058464 -1.596719,3.655933 -2.267799,2.984852 -0.304027,-0.304026 -0.234692,-0.701011 0.443849,-2.541313 0.442289,-1.199551 0.804161,-2.291942 0.804161,-2.427536 0,-0.135593 -0.9525,-0.246533 -2.116667,-0.246533 -1.164166,0 -2.116666,0.11094 -2.116666,0.246533 0,0.135594 0.359598,1.221818 0.799107,2.413831 0.614427,1.666414 0.729235,2.251488 0.49677,2.531591 -0.341267,0.411202 -0.508676,0.440508 -0.924312,0.161806 z m 8.995834,0 c -0.159441,-0.106913 -0.795499,-1.538176 -1.413463,-3.180585 -0.904781,-2.404708 -1.060988,-3.061604 -0.802189,-3.373437 0.466405,-0.561985 7.452523,-0.565089 7.918585,-0.0035 0.254935,0.307178 0.09109,0.992234 -0.821377,3.434309 -1.14278,3.058465 -1.596718,3.655934 -2.267799,2.984853 -0.304027,-0.304026 -0.234692,-0.701011 0.44385,-2.541313 0.442288,-1.199551 0.80416,-2.291942 0.80416,-2.427536 0,-0.135593 -0.9525,-0.246533 -2.116666,-0.246533 -1.164167,0 -2.116667,0.11094 -2.116667,0.246533 0,0.135594 0.359598,1.221818 0.799108,2.413831 0.614426,1.666414 0.729234,2.251488 0.49677,2.531591 -0.341268,0.411202 -0.508677,0.440508 -0.924312,0.161806 z m 9.260416,0 c -0.15944,-0.106913 -0.795498,-1.538176 -1.413462,-3.180585 -0.904781,-2.404708 -1.060989,-3.061604 -0.80219,-3.373437 0.466406,-0.561985 7.452524,-0.565089 7.918586,-0.0035 0.254935,0.307178 0.09109,0.992234 -0.821377,3.434309 -1.14278,3.058465 -1.596719,3.655934 -2.267799,2.984853 -0.304027,-0.304026 -0.234692,-0.701011 0.443849,-2.541313 0.442289,-1.199551 0.804161,-2.291942 0.804161,-2.427536 0,-0.135593 -0.9525,-0.246533 -2.116667,-0.246533 -1.164166,0 -2.116666,0.11094 -2.116666,0.246533 0,0.135594 0.359598,1.221818 0.799107,2.413831 0.614427,1.666414 0.729235,2.251488 0.49677,2.531591 -0.341267,0.411202 -0.508676,0.440508 -0.924312,0.161806 z m 8.995833,0 c -0.159441,-0.106913 -0.795499,-1.538176 -1.413462,-3.180585 -0.90478,-2.404708 -1.060988,-3.061604 -0.802188,-3.373437 0.466405,-0.561985 7.452521,-0.565089 7.918581,-0.0035 0.25494,0.307178 0.0911,0.992234 -0.82137,3.434309 -1.14278,3.058464 -1.596722,3.655934 -2.267803,2.984853 -0.304028,-0.304026 -0.234691,-0.701011 0.443849,-2.541313 0.442284,-1.199551 0.804164,-2.291942 0.804164,-2.427536 0,-0.135593 -0.952503,-0.246533 -2.116669,-0.246533 -1.164167,0 -2.116667,0.11094 -2.116667,0.246533 0,0.135594 0.359598,1.221818 0.799108,2.413831 0.614426,1.666414 0.729234,2.251488 0.496768,2.531591 -0.341265,0.411202 -0.508674,0.440508 -0.924311,0.161806 z m -27.074182,-8.41999 c -0.649799,-0.546769 -0.81405,-0.890795 -0.81405,-1.705037 0,-1.515088 0.933932,-2.492749 2.38125,-2.492749 1.447319,0 2.38125,0.977661 2.38125,2.492749 0,0.814242 -0.164251,1.158268 -0.81405,1.705037 -0.458545,0.385841 -1.142959,0.684979 -1.5672,0.684979 -0.42424,0 -1.108654,-0.299138 -1.5672,-0.684979 z m 2.325369,-1.35871 c 0.336924,-0.602051 -0.09206,-1.395895 -0.754331,-1.395895 -0.668537,0 -1.094319,0.76847 -0.765844,1.38223 0.320672,0.599181 1.188139,0.606979 1.520175,0.01367 z m 6.670465,1.35871 c -0.649799,-0.546769 -0.81405,-0.890795 -0.81405,-1.705037 0,-1.515088 0.933931,-2.492749 2.38125,-2.492749 1.447318,0 2.38125,0.977661 2.38125,2.492749 0,0.814242 -0.164252,1.158268 -0.81405,1.705037 -0.458546,0.385841 -1.14296,0.684979 -1.5672,0.684979 -0.424241,0 -1.108655,-0.299138 -1.5672,-0.684979 z m 2.325368,-1.35871 c 0.336925,-0.602051 -0.09206,-1.395895 -0.75433,-1.395895 -0.668538,0 -1.094319,0.76847 -0.765845,1.38223 0.320672,0.599181 1.18814,0.606979 1.520175,0.01367 z m 6.935048,1.35871 c -1.054252,-0.887095 -1.130958,-2.356669 -0.180672,-3.461441 0.902682,-1.049431 2.593063,-1.049431 3.495745,0 0.950285,1.104772 0.87358,2.574346 -0.180673,3.461441 -0.458545,0.385841 -1.142959,0.684979 -1.5672,0.684979 -0.42424,0 -1.108654,-0.299138 -1.5672,-0.684979 z m 2.325369,-1.35871 c 0.336924,-0.602051 -0.09206,-1.395895 -0.754331,-1.395895 -0.668537,0 -1.094319,0.76847 -0.765844,1.38223 0.320672,0.599181 1.188139,0.606979 1.520175,0.01367 z m 6.670466,1.35871 c -1.054253,-0.887095 -1.130959,-2.356669 -0.180673,-3.461441 0.902681,-1.049431 2.593062,-1.049431 3.495741,0 0.95029,1.104772 0.87358,2.574346 -0.180671,3.461441 -0.458544,0.385841 -1.142957,0.684979 -1.567198,0.684979 -0.424241,0 -1.108655,-0.299138 -1.567199,-0.684979 z m 2.325368,-1.35871 c 0.336923,-0.602051 -0.09206,-1.395895 -0.75433,-1.395895 -0.668539,0 -1.09432,0.76847 -0.765845,1.38223 0.32067,0.599181 1.188138,0.606979 1.520175,0.01367 z"
       id="path4715"
       inkscape:connector-curvature="0" />
  </g>
</svg>
