<?xml version="1.0" encoding="UTF-8" standalone="no"?>
<!-- Created with Inkscape (http://www.inkscape.org/) -->

<svg
   xmlns:dc="http://purl.org/dc/elements/1.1/"
   xmlns:cc="http://creativecommons.org/ns#"
   xmlns:rdf="http://www.w3.org/1999/02/22-rdf-syntax-ns#"
   xmlns:svg="http://www.w3.org/2000/svg"
   xmlns="http://www.w3.org/2000/svg"
   xmlns:sodipodi="http://sodipodi.sourceforge.net/DTD/sodipodi-0.dtd"
   xmlns:inkscape="http://www.inkscape.org/namespaces/inkscape"
   width="34.838684mm"
   height="33.591537mm"
   viewBox="0 0 34.838687 33.591538"
   version="1.1"
   id="svg8"
   inkscape:version="0.92.2 (5c3e80d, 2017-08-06)"
   sodipodi:docname="person.svg">
  <defs
     id="defs2" />
  <sodipodi:namedview
     id="base"
     pagecolor="#ffffff"
     bordercolor="#666666"
     borderopacity="1.0"
     inkscape:pageopacity="0.0"
     inkscape:pageshadow="2"
     inkscape:zoom="2.8"
     inkscape:cx="25.572314"
     inkscape:cy="26.530975"
     inkscape:document-units="mm"
     inkscape:current-layer="layer1"
     showgrid="false"
     inkscape:window-width="1119"
     inkscape:window-height="982"
     inkscape:window-x="1520"
     inkscape:window-y="16"
     inkscape:window-maximized="0"
     fit-margin-top="0"
     fit-margin-left="0"
     fit-margin-right="0"
     fit-margin-bottom="0" />
  <metadata
     id="metadata5">
    <rdf:RDF>
      <cc:Work
         rdf:about="">
        <dc:format>image/svg+xml</dc:format>
        <dc:type
           rdf:resource="http://purl.org/dc/dcmitype/StillImage" />
        <dc:title></dc:title>
      </cc:Work>
    </rdf:RDF>
  </metadata>
  <g
     inkscape:label="Layer 1"
     inkscape:groupmode="layer"
     id="layer1"
     transform="translate(-77.254018,-35.874678)">
    <path
       style="fill:#8017e1;stroke-width:0.26458332;fill-opacity:1"
       d="m 86.358166,68.78632 c -4.104526,-2.174608 -8.602696,-7.779941 -6.243252,-7.779941 0.301093,0 0.889491,0.574971 1.509206,1.474772 1.326721,1.926338 3.521439,3.86157 5.599911,4.937815 1.622396,0.840089 2.096782,1.320147 1.79195,1.813372 -0.267651,0.43307 -1.337395,0.253551 -2.657815,-0.446018 z m 14.358334,0.510336 c -0.52532,-0.52532 -0.0779,-1.15565 1.31598,-1.854023 1.91026,-0.957093 5.00286,-3.842059 6.13079,-5.719183 1.20981,-2.013385 2.09665,-4.687614 2.31017,-6.966208 0.18885,-2.015206 0.63051,-2.615004 1.37636,-1.86915 0.30338,0.303382 0.31631,0.744069 0.0738,2.515363 -0.57574,4.205002 -2.12489,7.43555 -4.90286,10.224274 -2.47899,2.488592 -5.64311,4.330044 -6.30422,3.668927 z m -9.646933,-2.087549 c -2.570223,-0.691812 -4.333219,-1.737831 -6.429703,-3.814869 -1.428639,-1.415388 -2.242884,-2.488179 -2.816468,-3.710776 -1.354703,-2.887559 -1.86495,-6.640916 -0.950499,-6.991824 0.700604,-0.268847 0.968238,0.239631 1.182734,2.247082 0.126394,1.182917 0.486409,2.477998 0.975275,3.508355 0.744397,1.568925 0.785587,1.607206 1.045646,0.971804 0.148897,-0.363802 0.64755,-1.018646 1.108118,-1.455208 l 0.837395,-0.79375 8.383503,-0.0711 c 7.955842,-0.06748 8.426752,-0.04443 9.231312,0.451782 0.4663,0.287586 1.08219,0.974426 1.36865,1.526311 l 0.52083,1.003427 0.63852,-1.455208 c 0.35119,-0.800365 0.71382,-1.663568 0.80586,-1.918229 0.20079,-0.555557 0.79704,-0.602642 1.2174,-0.09614 0.41591,0.50114 -0.46598,2.823415 -1.87149,4.928184 -3.14651,4.711941 -9.722068,7.157289 -15.247083,5.670159 z m 7.750754,-1.845165 c 1.028845,-0.506584 1.06202,-0.565338 1.190629,-2.108605 0.11391,-1.367014 0.20578,-1.5875 0.66145,-1.5875 0.4334,0 0.5439,0.20351 0.61053,1.12448 0.0448,0.618463 0.19323,1.124479 0.32997,1.124479 0.13673,0 0.73752,-0.441709 1.33509,-0.981573 1.00053,-0.90392 1.07542,-1.064101 0.94657,-2.024746 -0.0848,-0.63232 -0.41041,-1.313838 -0.82669,-1.730406 l -0.68677,-0.687234 -6.939765,-0.08304 c -3.81687,-0.04567 -7.34002,-0.008 -7.829221,0.08368 -1.376364,0.257985 -2.153251,1.201073 -2.153251,2.613903 0,1.044436 0.115812,1.278849 0.986325,1.996402 0.542479,0.447156 1.071415,0.813012 1.175412,0.813012 0.103998,0 0.225698,-0.504989 0.270446,-1.122196 0.06168,-0.850741 0.201694,-1.145048 0.578821,-1.21666 0.695875,-0.132136 0.948995,0.39837 0.953694,1.998818 0.0032,1.092237 0.111027,1.437005 0.517415,1.654496 1.757416,0.94054 7.077195,1.020037 8.879345,0.132688 z m -6.000603,-9.753738 c -4.393175,-1.182921 -6.113331,-6.628897 -3.270883,-10.355539 1.006577,-1.31969 3.08452,-2.239953 5.05779,-2.239953 0.899542,0 2.052416,0.174186 2.561943,0.38708 3.075692,1.285107 4.594032,4.757492 3.577302,8.181182 -0.47443,1.597589 -2.432988,3.45776 -4.190028,3.979545 -1.64494,0.488494 -2.078481,0.494028 -3.736124,0.04769 z m 4.433686,-2.024879 c 2.190897,-1.354049 2.925446,-4.62715 1.523606,-6.789106 -1.176964,-1.815148 -3.39429,-2.728877 -5.346477,-2.203208 -3.576812,0.963136 -4.936038,5.400378 -2.464734,8.046211 1.66533,1.782937 4.293665,2.178426 6.287605,0.946103 z m -19.820235,0.365498 c -0.345497,-0.345496 -0.168328,-2.945483 0.334748,-4.912491 2.365056,-9.247281 11.903578,-14.978079 21.040497,-12.641248 2.574816,0.658527 4.245236,1.546679 4.245236,2.257165 0,0.718041 -1.03523,0.638364 -3.57187,-0.274907 -8.447322,-3.041308 -17.541273,2.050583 -20.090273,11.248958 -0.300975,1.086104 -0.547227,2.354343 -0.547227,2.818309 0,0.463966 -0.07227,1.031906 -0.160599,1.262089 -0.161829,0.421718 -0.923453,0.569184 -1.250512,0.242125 z m 27.501541,-7.866622 c -1.44441,-2.024147 -2.69992,-3.064092 -4.99699,-4.139022 -3.092892,-1.447338 -6.194224,-1.602437 -9.558226,-0.47801 -1.441607,0.481861 -1.594157,0.488908 -1.984375,0.09166 -0.387774,-0.394764 -0.371757,-0.472118 0.193771,-0.935841 1.285254,-1.053887 5.233341,-1.702335 7.986938,-1.311805 3.421026,0.485189 6.149162,1.923125 8.627572,4.54739 2.14278,2.268876 2.75477,3.918643 1.45366,3.918643 -0.32983,0 -0.9475,-0.607149 -1.72236,-1.693011 z"
       id="path4780"
       inkscape:connector-curvature="0" />
  </g>
</svg>
