<?xml version="1.0" encoding="UTF-8" standalone="no"?>
<!-- Created with Inkscape (http://www.inkscape.org/) -->

<svg
   xmlns:dc="http://purl.org/dc/elements/1.1/"
   xmlns:cc="http://creativecommons.org/ns#"
   xmlns:rdf="http://www.w3.org/1999/02/22-rdf-syntax-ns#"
   xmlns:svg="http://www.w3.org/2000/svg"
   xmlns="http://www.w3.org/2000/svg"
   xmlns:sodipodi="http://sodipodi.sourceforge.net/DTD/sodipodi-0.dtd"
   xmlns:inkscape="http://www.inkscape.org/namespaces/inkscape"
   width="35.514187mm"
   height="27.163879mm"
   viewBox="0 0 35.51419 27.16388"
   version="1.1"
   id="svg8"
   inkscape:version="0.92.2 (5c3e80d, 2017-08-06)"
   sodipodi:docname="Shipping.svg">
  <defs
     id="defs2" />
  <sodipodi:namedview
     id="base"
     pagecolor="#ffffff"
     bordercolor="#666666"
     borderopacity="1.0"
     inkscape:pageopacity="0.0"
     inkscape:pageshadow="2"
     inkscape:zoom="2.8"
     inkscape:cx="137.68573"
     inkscape:cy="-18.844022"
     inkscape:document-units="mm"
     inkscape:current-layer="layer1"
     showgrid="false"
     inkscape:window-width="1119"
     inkscape:window-height="982"
     inkscape:window-x="1520"
     inkscape:window-y="16"
     inkscape:window-maximized="0"
     fit-margin-top="0"
     fit-margin-left="0"
     fit-margin-right="0"
     fit-margin-bottom="0" />
  <metadata
     id="metadata5">
    <rdf:RDF>
      <cc:Work
         rdf:about="">
        <dc:format>image/svg+xml</dc:format>
        <dc:type
           rdf:resource="http://purl.org/dc/dcmitype/StillImage" />
        <dc:title></dc:title>
      </cc:Work>
    </rdf:RDF>
  </metadata>
  <g
     inkscape:label="Layer 1"
     inkscape:groupmode="layer"
     id="layer1"
     transform="translate(-47.590678,-30.296869)">
    <path
       style="fill:#8017e1;stroke-width:0.26458332;fill-opacity:1"
       d="m 51.523291,57.309143 c -0.241519,-0.09745 -0.330729,-1.09098 -0.330729,-3.683277 v -3.549828 h -1.728096 c -1.228912,0 -1.768748,-0.105939 -1.868829,-0.366745 -0.0774,-0.20171 0.760516,-2.166242 1.862043,-4.365625 l 2.002777,-3.99888 h 1.038848 c 1.11845,0 1.141079,-0.0305 1.472284,-1.984375 0.49408,-2.914721 3.355228,-6.519591 6.260043,-7.88727 4.623163,-2.17673 9.734537,-1.290669 13.337224,2.312018 1.763281,1.763282 2.790306,3.654732 3.278674,6.038273 l 0.311716,1.521354 h 1.037918 1.037918 l 2.002777,3.99888 c 1.101527,2.199383 1.939446,4.163915 1.862045,4.365625 -0.100081,0.260806 -0.639919,0.366745 -1.868831,0.366745 h -1.728095 v 3.543568 c 0,2.987196 -0.06571,3.568784 -0.418515,3.704166 -0.499975,0.19186 -27.084412,0.177747 -27.561172,-0.01463 z m 20.365652,-5.182584 0.07341,-3.770312 h 0.661459 0.661458 l 0.07341,3.770312 0.07341,3.770313 h 2.241694 2.241693 V 52.986455 50.076038 H 76.855691 75.795908 L 74.28133,47.03333 c -0.833019,-1.67349 -1.578903,-3.042708 -1.657519,-3.042708 -0.07862,0 -0.8245,1.369218 -1.657519,3.042708 l -1.514578,3.042708 h -8.335827 -8.335826 v 2.910417 2.910417 h 9.517735 9.517736 z m -1.971284,-6.419326 c 0.76078,-1.529719 1.383236,-2.839406 1.383236,-2.910417 0,-0.07101 -4.225724,-0.129111 -9.390498,-0.129111 h -9.390498 l -1.459629,2.910417 -1.459629,2.910416 h 9.466891 9.466891 z m 9.717611,-0.129111 -1.45963,-2.910417 h -1.938067 c -1.065938,0 -2.010376,0.07231 -2.098752,0.160686 -0.08838,0.08838 0.454702,1.398064 1.206847,2.910416 l 1.367533,2.749731 H 78.904049 81.0949 Z M 57.529211,40.088017 c 1.087298,-4.351141 5.62733,-7.029701 9.935226,-5.861653 2.614977,0.709028 5.058519,3.218611 5.707401,5.861653 0.303919,1.237935 0.324376,1.256771 1.364914,1.256771 h 1.056367 l -0.177691,-0.992187 c -0.24071,-1.344052 -1.485196,-3.973721 -2.382958,-5.035327 -1.05723,-1.250177 -2.725397,-2.322665 -4.58944,-2.950615 -5.349175,-1.802007 -11.321783,1.390989 -12.867068,6.87882 -0.576051,2.045754 -0.560431,2.099309 0.612273,2.099309 1.004635,0 1.03374,-0.02728 1.340976,-1.256771 z m 3.703114,0.374371 c 1.224533,-3.71037 7.006357,-3.71037 8.23089,0 0.266016,0.806039 0.383511,0.8824 1.357715,0.8824 1.031033,0 1.060466,-0.0242 0.88512,-0.727604 -0.739088,-2.964882 -3.396071,-5.093229 -6.35828,-5.093229 -2.962209,0 -5.619192,2.128347 -6.35828,5.093229 -0.175346,0.703409 -0.145913,0.727604 0.88512,0.727604 0.974204,0 1.091699,-0.07636 1.357715,-0.8824 z m 6.89357,0.63817 c 0,-0.134327 -0.366346,-0.610577 -0.814103,-1.058334 -0.659327,-0.659327 -1.032723,-0.814102 -1.964022,-0.814102 -0.931299,0 -1.304695,0.154775 -1.964022,0.814102 -0.447757,0.447757 -0.814103,0.924007 -0.814103,1.058334 0,0.134326 1.250156,0.24423 2.778125,0.24423 1.527969,0 2.778125,-0.109904 2.778125,-0.24423 z"
       id="path4793"
       inkscape:connector-curvature="0" />
  </g>
</svg>
