<?xml version="1.0" encoding="UTF-8" standalone="no"?>
<!-- Created with Inkscape (http://www.inkscape.org/) -->

<svg
   xmlns:dc="http://purl.org/dc/elements/1.1/"
   xmlns:cc="http://creativecommons.org/ns#"
   xmlns:rdf="http://www.w3.org/1999/02/22-rdf-syntax-ns#"
   xmlns:svg="http://www.w3.org/2000/svg"
   xmlns="http://www.w3.org/2000/svg"
   xmlns:sodipodi="http://sodipodi.sourceforge.net/DTD/sodipodi-0.dtd"
   xmlns:inkscape="http://www.inkscape.org/namespaces/inkscape"
   width="35.654114mm"
   height="31.981468mm"
   viewBox="0 0 35.654117 31.981469"
   version="1.1"
   id="svg8"
   inkscape:version="0.92.2 (5c3e80d, 2017-08-06)"
   sodipodi:docname="software.svg">
  <defs
     id="defs2" />
  <sodipodi:namedview
     id="base"
     pagecolor="#ffffff"
     bordercolor="#666666"
     borderopacity="1.0"
     inkscape:pageopacity="0.0"
     inkscape:pageshadow="2"
     inkscape:zoom="2.8"
     inkscape:cx="32.458298"
     inkscape:cy="-27.254731"
     inkscape:document-units="mm"
     inkscape:current-layer="layer1"
     showgrid="false"
     inkscape:window-width="1119"
     inkscape:window-height="982"
     inkscape:window-x="1520"
     inkscape:window-y="16"
     inkscape:window-maximized="0"
     fit-margin-top="0"
     fit-margin-left="0"
     fit-margin-right="0"
     fit-margin-bottom="0" />
  <metadata
     id="metadata5">
    <rdf:RDF>
      <cc:Work
         rdf:about="">
        <dc:format>image/svg+xml</dc:format>
        <dc:type
           rdf:resource="http://purl.org/dc/dcmitype/StillImage" />
        <dc:title></dc:title>
      </cc:Work>
    </rdf:RDF>
  </metadata>
  <g
     inkscape:label="Layer 1"
     inkscape:groupmode="layer"
     id="layer1"
     transform="translate(-75.432101,-23.253947)">
    <path
       style="fill:#8017e1;stroke-width:0.26458332;fill-opacity:1"
       d="m 85.283889,54.83854 c -0.2562,-0.667645 0.11601,-1.190625 0.84738,-1.190625 1.950288,0 3.582483,-2.34654 3.647488,-5.243846 l 0.03966,-1.767613 -6.572262,-0.132291 c -6.481298,-0.130461 -6.579139,-0.140793 -7.069157,-0.746484 -0.273292,-0.337806 -0.56628,-0.99265 -0.651083,-1.455208 -0.0848,-0.462559 -0.11837,-5.035398 -0.07459,-10.161864 l 0.07959,-9.320847 0.733488,-0.73332 0.733489,-0.733319 15.670678,-0.07995 c 10.96902,-0.05596 15.97452,0.0086 16.68337,0.215202 1.76183,0.513489 1.79473,0.74341 1.70856,11.940127 l -0.0754,9.79904 -0.74236,0.638311 c -0.73897,0.6354 -0.77062,0.638312 -6.94027,0.638312 h -6.197912 l -0.15722,0.626414 c -0.198839,0.792239 0.265301,3.350051 0.79311,4.370721 0.503264,0.973206 1.63017,1.874239 2.582222,2.064649 0.99828,0.199655 1.43583,0.753634 1.00514,1.272591 -0.27912,0.336314 -1.516724,0.396875 -8.110493,0.396875 -6.672471,0 -7.802814,-0.05655 -7.93341,-0.396875 z m 11.810569,-1.289593 c 0,-0.05443 -0.320157,-0.67179 -0.71146,-1.371907 -0.568967,-1.017992 -0.734697,-1.715664 -0.827481,-3.48343 l -0.116022,-2.21049 -1.972294,0.07667 -1.972294,0.07667 -0.115612,1.719792 c -0.131662,1.958544 -0.471134,3.194069 -1.217671,4.431771 l -0.518658,0.859896 h 3.725747 c 2.04916,0 3.725745,-0.04454 3.725745,-0.09897 z m 11.756732,-8.625734 c 0.55135,-0.209623 0.67869,-0.433002 0.67869,-1.190625 v -0.93259 H 93.381988 c -14.120284,0 -16.167039,0.04991 -16.30041,0.397467 -0.240859,0.62767 0.124568,1.668727 0.632332,1.801434 0.960016,0.250904 30.46693,0.179182 31.13728,-0.07569 z M 79.411283,39.747806 c 1.062152,-9.626835 11.312101,-15.279665 20.083566,-11.076053 2.436711,1.167762 5.098391,3.780282 6.282901,6.166859 0.94153,1.897025 1.0387,2.53751 0.42096,2.774562 -0.60801,0.233316 -0.72739,0.102612 -1.68742,-1.847469 -3.63343,-7.38055 -13.231247,-9.249313 -19.429671,-3.783096 -2.266783,1.999013 -3.966046,5.332328 -4.16571,8.171556 l -0.08373,1.190625 3.241511,0.07433 c 2.459034,0.05639 3.264904,-0.0075 3.338422,-0.264583 0.0533,-0.186403 0.234942,-0.846904 0.403647,-1.46778 0.613369,-2.257359 3.029297,-4.131427 5.129105,-3.978717 0.894602,0.06506 1.106885,0.179714 1.106885,0.597823 0,0.385549 -0.254923,0.570289 -1.000786,0.725256 -2.180582,0.453058 -3.517449,1.698858 -3.819335,3.559163 l -0.15746,0.970313 1.430457,-0.171749 c 0.786751,-0.09446 3.619932,-0.172783 6.295957,-0.174048 l 4.865498,-0.0023 -0.15453,-1.304821 c -0.19613,-1.656017 -0.98077,-3.196361 -2.300426,-4.516012 -1.617444,-1.617444 -2.967613,-2.189394 -5.495872,-2.328123 -2.033011,-0.111555 -2.305894,-0.06234 -3.838977,0.692397 -1.881555,0.926286 -2.936261,1.924485 -3.912962,3.703319 -1.154691,2.103001 -2.521564,1.713661 -1.555915,-0.443187 0.76825,-1.715939 2.936385,-3.828958 4.823015,-4.700409 1.4484,-0.669028 1.949203,-0.760456 4.165441,-0.760456 2.307371,0 2.665914,0.07227 4.265765,0.859878 2.947231,1.450919 5.174571,4.519926 5.463631,7.528248 l 0.12195,1.269166 h 3.14134 3.14133 v -7.884583 c 0,-5.779676 -0.0848,-7.969345 -0.3175,-8.202084 -0.23973,-0.239736 -4.1233,-0.3175 -15.856097,-0.3175 -13.773223,0 -15.585838,0.04724 -15.954375,0.415774 -0.359031,0.359031 -0.415774,1.472389 -0.415774,8.157986 0,4.258217 0.08504,7.827254 0.188981,7.931193 0.103939,0.10394 0.609955,0.153549 1.124479,0.110244 l 0.935498,-0.07874 z"
       id="path4806"
       inkscape:connector-curvature="0" />
  </g>
</svg>
