<?xml version="1.0" encoding="UTF-8" standalone="no"?>
<!-- Created with Inkscape (http://www.inkscape.org/) -->

<svg
   xmlns:dc="http://purl.org/dc/elements/1.1/"
   xmlns:cc="http://creativecommons.org/ns#"
   xmlns:rdf="http://www.w3.org/1999/02/22-rdf-syntax-ns#"
   xmlns:svg="http://www.w3.org/2000/svg"
   xmlns="http://www.w3.org/2000/svg"
   xmlns:sodipodi="http://sodipodi.sourceforge.net/DTD/sodipodi-0.dtd"
   xmlns:inkscape="http://www.inkscape.org/namespaces/inkscape"
   width="29.246712mm"
   height="34.388016mm"
   viewBox="0 0 29.246713 34.388016"
   version="1.1"
   id="svg8"
   inkscape:version="0.92.2 (5c3e80d, 2017-08-06)"
   sodipodi:docname="targeting.svg">
  <defs
     id="defs2" />
  <sodipodi:namedview
     id="base"
     pagecolor="#ffffff"
     bordercolor="#666666"
     borderopacity="1.0"
     inkscape:pageopacity="0.0"
     inkscape:pageshadow="2"
     inkscape:zoom="2.8"
     inkscape:cx="98.94905"
     inkscape:cy="95.720878"
     inkscape:document-units="mm"
     inkscape:current-layer="layer1"
     showgrid="false"
     inkscape:window-width="1119"
     inkscape:window-height="982"
     inkscape:window-x="1520"
     inkscape:window-y="16"
     inkscape:window-maximized="0"
     fit-margin-top="0"
     fit-margin-left="0"
     fit-margin-right="0"
     fit-margin-bottom="0" />
  <metadata
     id="metadata5">
    <rdf:RDF>
      <cc:Work
         rdf:about="">
        <dc:format>image/svg+xml</dc:format>
        <dc:type
           rdf:resource="http://purl.org/dc/dcmitype/StillImage" />
        <dc:title></dc:title>
      </cc:Work>
    </rdf:RDF>
  </metadata>
  <g
     inkscape:label="Layer 1"
     inkscape:groupmode="layer"
     id="layer1"
     transform="translate(-57.839756,-53.384698)">
    <path
       style="fill:#8017e1;fill-opacity:1;stroke-width:0.26458335"
       d="m 59.995961,87.724418 c -0.547695,-0.196384 -0.383387,-0.839996 0.728802,-2.854788 1.195381,-2.165495 1.596639,-2.592323 2.214225,-2.355334 0.656977,0.252106 0.530055,0.790451 -0.694069,2.943924 -1.125652,1.980242 -1.629765,2.488218 -2.248958,2.266198 z M 78.625057,86.65774 c -0.935379,-1.48259 -1.761908,-3.170999 -1.761908,-3.599172 0,-0.53249 0.821257,-0.787955 1.219352,-0.379299 0.686043,0.704242 2.516522,4.241816 2.379562,4.598729 -0.272526,0.710192 -1.193886,0.399097 -1.837006,-0.620258 z M 66.544398,82.124793 c -2.969214,-0.958165 -4.770791,-2.232486 -6.524943,-4.615333 -1.671247,-2.270228 -2.295033,-4.528669 -2.162463,-7.829279 0.09498,-2.364744 0.193517,-2.775499 1.111288,-4.632481 3.094948,-6.262203 10.385383,-8.736754 16.62095,-5.641557 l 1.803086,0.895013 v -1.744689 -1.744689 l 1.803137,-1.78932 c 2.384774,-2.366501 2.649979,-2.273171 2.751322,0.968239 l 0.07575,2.422773 2.459572,0.07624 c 3.247679,0.100663 3.329731,0.334026 0.957842,2.724229 l -1.815722,1.829743 h -1.744689 -1.744689 l 0.895013,1.803086 c 1.7112,3.447374 1.765965,7.415752 0.149784,10.853676 -1.401078,2.980358 -5.039539,5.886733 -8.314811,6.641803 -1.769495,0.407935 -4.694268,0.307308 -6.320426,-0.21745 z m 7.937501,-2.053162 c 5.246705,-2.476993 7.617255,-8.245002 5.584579,-13.58837 -0.304468,-0.800364 -0.842352,-1.812395 -1.195299,-2.248958 l -0.641721,-0.79375 -0.805203,0.767292 -0.805203,0.767291 0.524493,0.736582 c 1.368227,1.921498 1.714707,5.249393 0.797778,7.662555 -1.219019,3.208195 -4.300182,5.376897 -7.657773,5.389985 -3.474571,0.01354 -6.397665,-1.771418 -7.891792,-4.819055 -0.622513,-1.269766 -0.739709,-1.844173 -0.739709,-3.625483 0,-1.777573 0.11763,-2.356599 0.734263,-3.614353 1.39442,-2.844216 3.870452,-4.470589 7.09991,-4.663548 2.204616,-0.131725 3.501433,0.163272 5.029327,1.144061 l 0.959692,0.616047 0.7601,-0.797695 0.7601,-0.797696 -0.793751,-0.641721 c -1.541426,-1.246194 -3.474769,-1.810851 -6.231613,-1.820021 -2.393584,-0.008 -2.633332,0.04393 -4.526639,0.979737 -6.629968,3.277008 -8.211625,11.555158 -3.226128,16.885057 2.387046,2.551944 4.593631,3.456647 8.163547,3.347061 2.016455,-0.0619 2.644713,-0.197477 4.101042,-0.885018 z m -2.483861,-3.131367 c 3.87446,-1.150591 5.926993,-5.641536 4.303362,-9.415766 -0.308961,-0.718201 -0.643873,-1.30582 -0.744249,-1.30582 -0.100375,0 -0.496012,0.327422 -0.879194,0.727604 -0.69174,0.72243 -0.69376,0.736516 -0.283943,1.980665 1.244732,3.778843 -2.352392,7.082783 -6.137481,5.637244 -1.642098,-0.627122 -2.564306,-1.8943 -2.71679,-3.733055 -0.147245,-1.775593 0.233752,-2.744988 1.544136,-3.928842 1.286114,-1.161926 2.966132,-1.474977 4.558598,-0.849439 1.083714,0.425695 1.097856,0.423526 1.833488,-0.281254 0.407743,-0.390642 0.74135,-0.792384 0.74135,-0.892759 0,-0.100375 -0.609835,-0.444844 -1.35519,-0.765487 -2.628499,-1.13075 -5.661572,-0.599494 -7.595724,1.330424 -3.779597,3.771325 -2.326641,9.677839 2.834352,11.522121 1.270044,0.453851 2.305615,0.447039 3.897285,-0.02564 z m -0.449095,-3.963056 c 1.186657,-0.613644 1.954857,-2.62885 1.360328,-3.568525 -0.194763,-0.30783 -0.478688,-0.163337 -1.464382,0.745244 -1.260489,1.161878 -1.619887,1.245256 -2.098313,0.486793 -0.225054,-0.356785 -0.05159,-0.672289 0.906152,-1.648159 0.97329,-0.99171 1.1139,-1.251528 0.7886,-1.457176 -0.931953,-0.589159 -2.760578,-0.01205 -3.554827,1.121903 -0.227115,0.324253 -0.412936,1.110745 -0.412936,1.747761 0,0.964405 0.150531,1.308743 0.899583,2.057796 1.013784,1.013783 2.262634,1.193425 3.575795,0.514363 z M 83.742316,60.79472 c 0.679587,-0.723389 0.669533,-0.729736 -1.058334,-0.667972 -0.867138,0.031 -1.368706,0.217379 -1.84607,0.685995 l -0.655445,0.643435 h 1.469221 c 1.22507,0 1.572483,-0.109919 2.090628,-0.661458 z M 80.302732,57.527479 V 56.07227 l -0.661458,0.621408 c -0.550057,0.516752 -0.661458,0.866492 -0.661458,2.076616 v 1.455209 l 0.661458,-0.621408 c 0.550057,-0.516751 0.661458,-0.866492 0.661458,-2.076616 z"
       id="path4663"
       inkscape:connector-curvature="0" />
  </g>
</svg>
