<?xml version="1.0" encoding="UTF-8" standalone="no"?>
<!-- Created with Inkscape (http://www.inkscape.org/) -->

<svg
   xmlns:dc="http://purl.org/dc/elements/1.1/"
   xmlns:cc="http://creativecommons.org/ns#"
   xmlns:rdf="http://www.w3.org/1999/02/22-rdf-syntax-ns#"
   xmlns:svg="http://www.w3.org/2000/svg"
   xmlns="http://www.w3.org/2000/svg"
   xmlns:sodipodi="http://sodipodi.sourceforge.net/DTD/sodipodi-0.dtd"
   xmlns:inkscape="http://www.inkscape.org/namespaces/inkscape"
   width="32.993847mm"
   height="32.759594mm"
   viewBox="0 0 32.99385 32.759595"
   version="1.1"
   id="svg8"
   inkscape:version="0.92.2 (5c3e80d, 2017-08-06)"
   sodipodi:docname="time_Savings.svg">
  <defs
     id="defs2" />
  <sodipodi:namedview
     id="base"
     pagecolor="#ffffff"
     bordercolor="#666666"
     borderopacity="1.0"
     inkscape:pageopacity="0.0"
     inkscape:pageshadow="2"
     inkscape:zoom="2.8"
     inkscape:cx="2.6660057"
     inkscape:cy="128.47163"
     inkscape:document-units="mm"
     inkscape:current-layer="layer1"
     showgrid="false"
     inkscape:window-width="1119"
     inkscape:window-height="982"
     inkscape:window-x="1520"
     inkscape:window-y="16"
     inkscape:window-maximized="0"
     fit-margin-top="0"
     fit-margin-left="0"
     fit-margin-right="0"
     fit-margin-bottom="0" />
  <metadata
     id="metadata5">
    <rdf:RDF>
      <cc:Work
         rdf:about="">
        <dc:format>image/svg+xml</dc:format>
        <dc:type
           rdf:resource="http://purl.org/dc/dcmitype/StillImage" />
        <dc:title></dc:title>
      </cc:Work>
    </rdf:RDF>
  </metadata>
  <g
     inkscape:label="Layer 1"
     inkscape:groupmode="layer"
     id="layer1"
     transform="translate(-83.314645,-63.678421)">
    <path
       style="fill:#8017e1;stroke-width:0.26458332;fill-opacity:1"
       d="m 99.160655,96.069554 c -0.700532,-0.84409 0.333074,-2.17087 1.157895,-1.486326 0.49773,0.413075 0.54338,1.111168 0.10156,1.55299 -0.424208,0.424204 -0.871729,0.400516 -1.259455,-0.06666 z m -7.900304,-2.166956 c -0.310586,-0.55499 -0.108971,-1.337519 0.39437,-1.530671 0.554554,-0.212801 1.409969,0.310883 1.409969,0.863182 0,1.012386 -1.334955,1.506231 -1.804339,0.667489 z m 15.615589,0.116953 c -0.47621,-0.476215 -0.38273,-1.216469 0.1925,-1.524325 0.63527,-0.339984 1.25105,-0.122354 1.41371,0.499631 0.27539,1.053111 -0.85601,1.774897 -1.60621,1.024694 z M 96.703808,91.94975 c -3.344605,-0.843015 -6.504358,-3.492122 -8.05177,-6.750531 -0.825999,-1.73932 -0.971991,-2.342486 -1.083644,-4.477067 -0.105015,-2.00769 -0.02614,-2.80478 0.423675,-4.281747 1.340122,-4.400254 4.546331,-7.405944 9.088808,-8.520385 l 1.936938,-0.475205 0.07853,-1.78048 c 0.05896,-1.336683 0.183906,-1.820917 0.501282,-1.942705 0.679503,-0.260751 1.139983,0.676835 1.139983,2.321151 v 1.502506 l 1.56174,0.307255 c 4.57051,0.899193 8.49297,4.699213 9.55339,9.255169 0.51979,2.233253 0.22374,5.678523 -0.6565,7.639974 -0.39911,0.889335 -0.87655,1.674875 -1.06097,1.745645 -0.18442,0.07077 -1.74747,-0.678466 -3.47344,-1.664967 l -3.13812,-1.793639 -0.95909,0.634696 c -1.86723,1.235674 -4.125407,1.134663 -5.708542,-0.255348 -1.541033,-1.353045 -2.076147,-3.323662 -1.393912,-5.133234 0.399752,-1.060308 1.778188,-2.40455 2.817416,-2.747526 l 0.887417,-0.292874 -0.07459,-2.953256 -0.07459,-2.953256 -1.040544,0.06384 c -1.448859,0.08889 -4.115076,1.397712 -5.559458,2.729097 -0.755789,0.696662 -1.585898,1.87229 -2.201437,3.117748 -0.952386,1.927022 -0.988144,2.100406 -0.988144,4.791222 0,2.550641 0.06705,2.929002 0.776012,4.379347 0.992073,2.0295 3.279905,4.317331 5.309404,5.309405 1.465391,0.716322 1.811367,0.775668 4.497917,0.771543 2.568741,-0.0039 3.081251,-0.08447 4.365621,-0.685948 0.80037,-0.374814 1.84037,-1.006957 2.31112,-1.404761 0.96615,-0.816432 1.75136,-0.81389 1.86906,0.006 0.0996,0.69385 -1.15515,1.683381 -3.56383,2.810538 -1.54699,0.723921 -2.08749,0.83385 -4.43029,0.901033 -1.467593,0.04209 -3.114338,-0.03589 -3.659438,-0.173286 z m 13.386312,-8.755582 c 1.25556,-3.887611 -0.0674,-8.618039 -3.17289,-11.344649 -1.14462,-1.004991 -3.73843,-2.269577 -5.18744,-2.529082 l -0.99218,-0.177694 v 1.220071 c 0,1.102815 0.0595,1.220071 0.6192,1.220071 0.99188,0 3.77071,1.52692 4.69533,2.580005 2.16967,2.471125 2.8206,5.90571 1.68173,8.873566 -0.11578,0.301709 0.0999,0.592814 0.71864,0.970052 0.48623,0.29644 0.95527,0.539427 1.0423,0.539971 0.087,5.56e-4 0.35493,-0.607996 0.59531,-1.352311 z m -8.96809,-0.541253 c 0.37065,-0.168879 0.67391,-0.388081 0.67391,-0.487117 0,-0.09904 -0.59531,-0.504073 -1.32292,-0.900085 l -1.322913,-0.720021 v -1.703279 c 0,-1.029176 -0.111598,-1.703278 -0.281978,-1.703278 -0.578605,0 -1.312497,0.568932 -1.699659,1.31762 -1.360663,2.631234 1.267069,5.420208 3.95356,4.19616 z m 5.68066,-2.621487 c 0.0693,-2.316471 -1.79759,-5.226638 -4.05351,-6.318713 -1.69075,-0.818475 -2.01157,-0.736745 -2.01157,0.512452 0,0.940958 0.0932,1.093741 0.86403,1.415797 1.88627,0.788137 3.09557,2.996609 2.76301,5.045939 -0.12776,0.787294 -0.047,0.926812 0.82767,1.430702 l 0.96925,0.558338 0.31039,-0.982466 c 0.17072,-0.540357 0.31955,-1.288279 0.33073,-1.662049 z m -3.94842,-0.127308 c 0,-1.198081 -1.11468,-2.764985 -1.96698,-2.764985 -0.0823,0 -0.14968,0.537531 -0.14968,1.194514 0,1.063721 0.0941,1.25192 0.85989,1.718802 1.11462,0.679598 1.25677,0.662821 1.25677,-0.148331 z m -16.999476,8.590905 c -0.859823,-0.500801 -0.395665,-1.83089 0.63892,-1.83089 0.393546,0 1.014726,0.706642 1.014726,1.154332 0,0.200623 -0.808157,0.963382 -1.011086,0.954289 -0.09875,-0.0044 -0.387898,-0.129404 -0.64256,-0.277731 z m 26.675666,-0.129998 c -0.49188,-0.491884 -0.4961,-0.527249 -0.14188,-1.18912 0.30869,-0.576781 1.04854,-0.671015 1.52528,-0.194272 0.47674,0.476742 0.38251,1.21659 -0.19428,1.525274 -0.66187,0.354222 -0.69723,0.350002 -1.18912,-0.141882 z M 83.521284,80.424248 c -0.25137,-0.302882 -0.271198,-0.541264 -0.07152,-0.859896 0.639486,-1.020454 2.173686,-0.396974 1.81375,0.737086 -0.208204,0.655991 -1.239401,0.72868 -1.742228,0.12281 z m 30.838336,-0.12281 c -0.35994,-1.13406 1.17426,-1.75754 1.81375,-0.737086 0.19968,0.318632 0.17985,0.557014 -0.0715,0.859896 -0.50283,0.60587 -1.53403,0.533181 -1.74223,-0.12281 z M 85.677491,72.798974 c -0.484604,-0.583912 -0.105618,-1.480673 0.625757,-1.480673 0.831811,0 1.39444,0.698252 1.030536,1.278949 -0.368187,0.587532 -1.247247,0.694595 -1.656293,0.201724 z m 26.683379,-0.04764 c -0.46796,-0.56386 -0.0144,-1.274477 0.88227,-1.382266 0.49852,-0.05993 0.72507,0.06612 0.85507,0.475717 0.34598,1.090076 -1.00149,1.793191 -1.73734,0.906549 z M 91.543336,67.438909 c -0.564929,-0.227953 -0.403037,-1.618246 0.211134,-1.813176 1.009123,-0.320283 1.745116,0.918509 0.99272,1.670905 -0.33082,0.330819 -0.644664,0.367909 -1.203854,0.142271 z m 15.332604,-0.142274 c -0.7398,-0.7398 -0.0208,-1.992588 0.96415,-1.679972 0.67165,0.213171 0.89236,1.10858 0.39569,1.605251 -0.47485,0.474848 -0.93446,0.500103 -1.35984,0.07472 z"
       id="path4819"
       inkscape:connector-curvature="0" />
  </g>
</svg>
