<?xml version="1.0" encoding="UTF-8" standalone="no"?>
<!-- Created with Inkscape (http://www.inkscape.org/) -->

<svg
   xmlns:dc="http://purl.org/dc/elements/1.1/"
   xmlns:cc="http://creativecommons.org/ns#"
   xmlns:rdf="http://www.w3.org/1999/02/22-rdf-syntax-ns#"
   xmlns:svg="http://www.w3.org/2000/svg"
   xmlns="http://www.w3.org/2000/svg"
   xmlns:sodipodi="http://sodipodi.sourceforge.net/DTD/sodipodi-0.dtd"
   xmlns:inkscape="http://www.inkscape.org/namespaces/inkscape"
   width="33.746048mm"
   height="34.931877mm"
   viewBox="0 0 33.746048 34.931878"
   version="1.1"
   id="svg8"
   inkscape:version="0.92.2 (5c3e80d, 2017-08-06)"
   sodipodi:docname="automation.svg">
  <defs
     id="defs2" />
  <sodipodi:namedview
     id="base"
     pagecolor="#ffffff"
     bordercolor="#666666"
     borderopacity="1.0"
     inkscape:pageopacity="0.0"
     inkscape:pageshadow="2"
     inkscape:zoom="2.8"
     inkscape:cx="104.10523"
     inkscape:cy="137.48559"
     inkscape:document-units="mm"
     inkscape:current-layer="layer1"
     showgrid="false"
     inkscape:window-width="1119"
     inkscape:window-height="982"
     inkscape:window-x="1520"
     inkscape:window-y="16"
     inkscape:window-maximized="0"
     fit-margin-top="0"
     fit-margin-left="0"
     fit-margin-right="0"
     fit-margin-bottom="0" />
  <metadata
     id="metadata5">
    <rdf:RDF>
      <cc:Work
         rdf:about="">
        <dc:format>image/svg+xml</dc:format>
        <dc:type
           rdf:resource="http://purl.org/dc/dcmitype/StillImage" />
        <dc:title></dc:title>
      </cc:Work>
    </rdf:RDF>
  </metadata>
  <g
     inkscape:label="Layer 1"
     inkscape:groupmode="layer"
     id="layer1"
     transform="translate(-56.475517,-63.891082)">
    <path
       style="fill:#8017e1;fill-opacity:1;stroke-width:0.26458332"
       d="m 83.422007,98.299184 c 0,-0.67265 -2.030952,-1.784424 -2.465646,-1.349729 -0.369896,0.369895 -1.156783,0.367744 -1.386404,-0.0038 -0.09851,-0.159398 -0.0406,-0.548629 0.128697,-0.864962 0.43597,-0.814618 -0.26952,-2.478554 -1.100915,-2.596563 -0.387923,-0.05506 -0.629678,-0.296352 -0.684613,-0.683294 -0.06745,-0.475113 0.07036,-0.629227 0.669905,-0.749136 0.599433,-0.119888 0.823191,-0.370012 1.086908,-1.214996 0.25084,-0.80372 0.257715,-1.153637 0.0281,-1.430305 -0.663642,-0.799641 0.514678,-1.62439 1.258322,-0.880745 0.443661,0.443653 2.465646,-0.678302 2.465646,-1.368141 0,-0.738528 1.158071,-0.595978 1.267915,0.156071 0.09481,0.649103 2.128613,1.604097 2.540019,1.192692 0.728623,-0.728624 1.890268,0.115326 1.238951,0.900115 -0.429712,0.51777 0.211796,2.537401 0.805971,2.537401 0.592939,0 1.070594,0.635071 0.870276,1.157089 -0.09084,0.236725 -0.421093,0.430411 -0.733894,0.430411 -0.723294,0 -1.442042,1.935313 -0.942353,2.537402 0.651317,0.784788 -0.510328,1.628738 -1.238951,0.900115 -0.179147,-0.179147 -0.629764,-0.114025 -1.373143,0.198437 -0.83126,0.349401 -1.107162,0.613167 -1.109183,1.0604 -0.0021,0.457893 -0.155379,0.595313 -0.664149,0.595313 -0.482807,0 -0.661459,-0.14147 -0.661459,-0.523791 z m 2.788989,-3.270615 c 0.486193,-0.486193 0.963443,-1.200568 1.060556,-1.5875 0.264099,-1.052245 -0.0746,-2.008563 -1.060556,-2.994522 -0.74685,-0.74685 -1.073407,-0.883989 -2.104959,-0.883989 -1.021307,0 -1.38258,0.148106 -2.209271,0.905711 -0.896341,0.821436 -0.9883,1.032589 -0.9883,2.269289 0,1.2367 0.09196,1.447853 0.9883,2.269289 0.826691,0.757605 1.187964,0.905711 2.209271,0.905711 1.031552,0 1.358109,-0.137139 2.104959,-0.883989 z m -2.722843,-1.407906 c -0.53345,-0.215252 -0.407781,-1.616742 0.161163,-1.797317 0.809006,-0.256768 1.360191,0.113694 1.360191,0.914212 0,0.882282 -0.62471,1.24491 -1.521354,0.883105 z m -13.55153,-0.635812 c -4.504798,-1.179362 -7.851527,-4.489073 -9.090389,-8.989844 -0.622112,-2.260124 -0.716649,-3.645979 -0.278594,-4.084034 0.687791,-0.687791 1.058718,-0.170602 1.379362,1.923268 0.91494,5.974729 5.640361,10.09493 11.590969,10.106426 1.25499,0.0024 1.662972,0.101214 1.790502,0.433552 0.477611,1.244634 -1.929066,1.517192 -5.39185,0.610632 z m -9.55328,-1.347063 c -2.22811,-2.410379 -4.080177,-7.474558 -3.895048,-10.650386 0.07223,-1.239177 0.131325,-1.346719 0.739962,-1.346719 0.637184,0 0.667294,0.07768 0.82046,2.116667 0.08745,1.164166 0.350505,2.77151 0.584567,3.571875 0.495253,1.693501 1.972234,4.255474 3.169696,5.49816 0.66213,0.687137 0.778649,0.959451 0.559315,1.307169 -0.490491,0.777589 -0.89477,0.676106 -1.978952,-0.496766 z m 11.449914,-1.069813 c -0.174625,-0.174625 -0.319092,-0.561578 -0.321038,-0.859896 -0.0048,-0.729292 -2.642475,-1.655304 -2.986171,-1.048343 -0.289142,0.51062 -1.222536,0.47189 -1.426327,-0.05918 -0.09135,-0.23806 -0.04581,-0.623537 0.101216,-0.856614 0.206474,-0.327329 0.05567,-0.67697 -0.662617,-1.536269 -0.776684,-0.929163 -1.047328,-1.089013 -1.642336,-0.970012 -0.96214,0.192428 -1.322646,-0.63783 -0.548976,-1.26431 0.458351,-0.37115 0.51312,-0.632267 0.375805,-1.791675 -0.132859,-1.121786 -0.280487,-1.414599 -0.851086,-1.68808 -0.933525,-0.447427 -0.930298,-1.354262 0.0052,-1.462704 0.5719,-0.06629 0.78484,-0.32499 1.197822,-1.455208 0.478787,-1.31031 0.480567,-1.39595 0.03805,-1.831601 -0.696145,-0.685352 -0.323129,-1.339196 0.680014,-1.191966 1.215249,0.178361 3.017589,-1.226817 2.975428,-2.319764 -0.02415,-0.626084 0.09135,-0.811114 0.546791,-0.875952 0.35385,-0.05037 0.679705,0.108935 0.841614,0.411466 0.237491,0.443755 0.412048,0.466584 1.726479,0.225793 1.16277,-0.213008 1.478121,-0.378574 1.539636,-0.808341 0.121212,-0.846822 1.375974,-0.744187 1.47919,0.120992 0.06408,0.53712 0.335252,0.747096 1.442599,1.117036 1.248696,0.417162 1.402963,0.420033 1.829463,0.03406 0.725569,-0.656631 1.378196,-0.256844 1.182012,0.724079 -0.130702,0.653511 9.79e-4,1.011179 0.686285,1.863939 0.596169,0.741853 0.995804,1.016605 1.345624,0.925125 1.185089,-0.309908 1.716761,0.755857 0.725878,1.455055 -0.464062,0.327455 -0.487101,0.49617 -0.235281,1.722945 0.213493,1.040069 0.432277,1.429711 0.930151,1.656557 0.839518,0.38251 0.716068,1.188841 -0.198371,1.295682 -0.559462,0.06537 -0.760257,0.330062 -1.174208,1.547885 -0.467071,1.374098 -0.470332,1.485271 -0.05047,1.720235 0.986562,0.552109 0.133215,1.822309 -0.865265,1.287939 -0.474252,-0.253812 -0.714669,-0.159254 -1.666438,0.655425 -0.890734,0.762435 -1.096629,1.100761 -1.03389,1.698883 0.102085,0.973225 -0.568582,1.251072 -1.251208,0.51836 -0.448923,-0.481863 -0.668355,-0.518463 -1.916879,-0.319728 -1.099675,0.175041 -1.431926,0.340432 -1.50992,0.751622 -0.160832,0.847926 -0.780317,1.135036 -1.308782,0.606571 z m 4.318252,-3.481294 c 4.474838,-2.083798 5.679836,-7.483971 2.480909,-11.118144 -1.64572,-1.869636 -2.844688,-2.40393 -5.396869,-2.404996 -2.31113,-9.65e-4 -3.104377,0.291158 -4.775921,1.758793 -1.500909,1.317816 -2.332,3.197622 -2.318624,5.244391 0.01326,2.029827 0.50424,3.289293 1.875037,4.809912 2.059128,2.284179 5.396231,2.985625 8.135468,1.710044 z m -3.511273,-5.631957 c -0.45238,-0.189234 -0.417483,-1.280373 0.05345,-1.671212 0.213227,-0.176963 0.632004,-0.240183 0.941118,-0.142074 0.438115,0.139053 0.539611,0.355404 0.475718,1.014047 -0.08115,0.836492 -0.646521,1.143827 -1.470286,0.799239 z m -4.143223,-0.547912 c -0.19748,-0.622204 0.189909,-1.965899 0.896278,-3.108828 0.960365,-1.553904 4.195145,-2.650347 4.612265,-1.563349 0.236189,0.615497 -0.31565,1.15709 -1.178978,1.15709 -1.09464,0 -2.304529,1.155378 -2.724687,2.601927 -0.26036,0.896382 -0.508203,1.256874 -0.904839,1.316101 -0.344972,0.05151 -0.602926,-0.09696 -0.700039,-0.402941 z m 20.393051,0.277274 c -0.09701,-0.09701 -0.178456,-0.543498 -0.180983,-0.992188 -0.01587,-2.820357 -1.520621,-6.755685 -3.523287,-9.214417 -1.312741,-1.611693 -1.507657,-2.228841 -0.790813,-2.503919 0.634378,-0.243434 2.802689,2.197953 3.916563,4.409812 1.388671,2.757534 2.350016,7.327184 1.704973,8.104415 -0.329822,0.397409 -0.836967,0.485785 -1.126453,0.196297 z M 61.274495,69.274524 c -0.425877,-1.109819 4.825979,-4.420507 8.071473,-5.08813 2.130874,-0.438337 4.797654,-0.378525 4.985819,0.111825 0.309495,0.806532 -0.418835,1.187256 -2.271238,1.187256 -2.93366,0 -5.563986,0.977552 -8.261509,3.070362 -1.603412,1.24397 -2.25211,1.428641 -2.524545,0.718687 z"
       id="path4598"
       inkscape:connector-curvature="0" />
  </g>
</svg>
