<?xml version="1.0" encoding="UTF-8" standalone="no"?>
<!-- Created with Inkscape (http://www.inkscape.org/) -->

<svg
   xmlns:dc="http://purl.org/dc/elements/1.1/"
   xmlns:cc="http://creativecommons.org/ns#"
   xmlns:rdf="http://www.w3.org/1999/02/22-rdf-syntax-ns#"
   xmlns:svg="http://www.w3.org/2000/svg"
   xmlns="http://www.w3.org/2000/svg"
   xmlns:sodipodi="http://sodipodi.sourceforge.net/DTD/sodipodi-0.dtd"
   xmlns:inkscape="http://www.inkscape.org/namespaces/inkscape"
   width="16.583012mm"
   height="16.655228mm"
   viewBox="0 0 16.583012 16.655228"
   version="1.1"
   id="svg8"
   inkscape:version="0.92.2 (5c3e80d, 2017-08-06)"
   sodipodi:docname="customer-service-eov.svg">
  <defs
     id="defs2" />
  <sodipodi:namedview
     id="base"
     pagecolor="#ffffff"
     bordercolor="#666666"
     borderopacity="1.0"
     inkscape:pageopacity="0.0"
     inkscape:pageshadow="2"
     inkscape:zoom="2.8"
     inkscape:cx="-26.885959"
     inkscape:cy="-35.886072"
     inkscape:document-units="mm"
     inkscape:current-layer="layer1"
     showgrid="false"
     inkscape:window-width="1119"
     inkscape:window-height="982"
     inkscape:window-x="1520"
     inkscape:window-y="16"
     inkscape:window-maximized="0"
     fit-margin-top="0"
     fit-margin-left="0"
     fit-margin-right="0"
     fit-margin-bottom="0" />
  <metadata
     id="metadata5">
    <rdf:RDF>
      <cc:Work
         rdf:about="">
        <dc:format>image/svg+xml</dc:format>
        <dc:type
           rdf:resource="http://purl.org/dc/dcmitype/StillImage" />
        <dc:title></dc:title>
      </cc:Work>
    </rdf:RDF>
  </metadata>
  <g
     inkscape:label="Layer 1"
     inkscape:groupmode="layer"
     id="layer1"
     transform="translate(-91.133602,-36.296481)">
    <path
       style="fill:#8017e1;fill-opacity:1;stroke-width:0.26458332"
       d="m 99.19131,52.549453 c -0.571862,-0.571862 -0.521695,-1.787605 0.09686,-2.347393 0.39178,-0.354556 0.75622,-0.422777 1.54585,-0.289371 0.95318,0.161039 1.09918,0.09942 1.88492,-0.795486 0.93802,-1.068339 1.42665,-1.020362 0.80934,0.07947 -0.57358,1.0219 -1.94061,1.759512 -2.60347,1.40476 -0.65854,-0.352437 -1.286494,-0.122606 -1.499607,0.548854 -0.181106,0.570614 0.276617,1.285777 0.822927,1.285777 0.19222,0 0.51038,-0.229722 0.70704,-0.510494 0.19666,-0.280772 0.67522,-0.59022 1.06346,-0.687663 0.87602,-0.219866 2.00696,-1.322049 2.21757,-2.161189 0.0961,-0.382927 0.56953,-0.840437 1.20528,-1.164773 1.41171,-0.720203 1.96655,-1.975153 1.43534,-3.24651 -0.20486,-0.490304 -0.59486,-1.055851 -0.86667,-1.256771 -0.27181,-0.200919 -0.64753,-0.96062 -0.83493,-1.688225 -0.47651,-1.850041 -1.41302,-3.153396 -2.88803,-4.019314 -3.386783,-1.98823 -7.559228,-0.05362 -8.557843,3.967947 -0.182536,0.735098 -0.635797,1.591602 -1.074363,2.030169 -0.575879,0.575879 -0.756592,1.002523 -0.750204,1.771158 0.0046,0.556897 0.153456,1.196598 0.330729,1.421557 0.501739,0.636707 1.58217,1.310775 2.100978,1.310775 0.426432,0 0.470295,-0.319192 0.470295,-3.422359 0,-3.697399 0.181036,-4.503675 1.273603,-5.672206 1.98607,-2.124158 5.569385,-1.914479 7.236925,0.423471 0.55523,0.778444 0.6264,1.206552 0.70477,4.239323 0.0592,2.291971 -0.004,3.373438 -0.19844,3.373438 -0.18765,0 -0.28561,-1.03017 -0.28561,-3.003581 0,-2.679267 -0.0643,-3.098027 -0.59531,-3.878276 -1.37118,-2.014677 -3.229803,-2.560711 -5.225522,-1.535176 -1.948054,1.001043 -2.38125,2.178626 -2.38125,6.473105 0,1.925109 -0.10047,3.562292 -0.223267,3.638185 -0.439443,0.27159 -2.26203,-0.434683 -2.983478,-1.156132 -1.328078,-1.328078 -1.327458,-2.783465 0.0018,-4.303585 0.415906,-0.475612 0.845434,-1.281467 0.954508,-1.79079 0.669153,-3.124629 3.270191,-5.291667 6.351446,-5.291667 1.669073,0 2.949273,0.495571 4.265413,1.651155 1.02361,0.898748 2.20987,3.092137 2.21429,4.094224 0.001,0.322301 0.23948,0.712784 0.52902,0.867739 0.84033,0.44973 1.40284,1.797536 1.24411,2.980949 -0.14968,1.115952 -0.92721,2.130195 -2.10127,2.740991 -0.40018,0.208192 -0.7276,0.544932 -0.7276,0.748311 0,0.599005 -1.24302,1.901118 -2.17746,2.280983 -0.47589,0.193457 -1.02083,0.566088 -1.21098,0.828069 -0.42742,0.58887 -1.718617,0.623145 -2.281207,0.06056 z"
       id="path4624"
       inkscape:connector-curvature="0" />
  </g>
</svg>
