<?xml version="1.0" encoding="UTF-8" standalone="no"?>
<!-- Created with Inkscape (http://www.inkscape.org/) -->

<svg
   xmlns:dc="http://purl.org/dc/elements/1.1/"
   xmlns:cc="http://creativecommons.org/ns#"
   xmlns:rdf="http://www.w3.org/1999/02/22-rdf-syntax-ns#"
   xmlns:svg="http://www.w3.org/2000/svg"
   xmlns="http://www.w3.org/2000/svg"
   xmlns:sodipodi="http://sodipodi.sourceforge.net/DTD/sodipodi-0.dtd"
   xmlns:inkscape="http://www.inkscape.org/namespaces/inkscape"
   width="32.256493mm"
   height="33.028885mm"
   viewBox="0 0 32.256495 33.028885"
   version="1.1"
   id="svg8"
   inkscape:version="0.92.2 (5c3e80d, 2017-08-06)"
   sodipodi:docname="Products.svg">
  <defs
     id="defs2" />
  <sodipodi:namedview
     id="base"
     pagecolor="#ffffff"
     bordercolor="#666666"
     borderopacity="1.0"
     inkscape:pageopacity="0.0"
     inkscape:pageshadow="2"
     inkscape:zoom="2.8"
     inkscape:cx="102.30545"
     inkscape:cy="-11.829431"
     inkscape:document-units="mm"
     inkscape:current-layer="layer1"
     showgrid="false"
     inkscape:window-width="1119"
     inkscape:window-height="982"
     inkscape:window-x="1520"
     inkscape:window-y="16"
     inkscape:window-maximized="0"
     fit-margin-top="0"
     fit-margin-left="0"
     fit-margin-right="0"
     fit-margin-bottom="0" />
  <metadata
     id="metadata5">
    <rdf:RDF>
      <cc:Work
         rdf:about="">
        <dc:format>image/svg+xml</dc:format>
        <dc:type
           rdf:resource="http://purl.org/dc/dcmitype/StillImage" />
        <dc:title></dc:title>
      </cc:Work>
    </rdf:RDF>
  </metadata>
  <g
     inkscape:label="Layer 1"
     inkscape:groupmode="layer"
     id="layer1"
     transform="translate(-56.95171,-26.287808)">
    <path
       style="fill:#8017e1;stroke-width:0.26458332;fill-opacity:1"
       d="M 72.978855,58.948024 C 70.982569,58.23625 69.895086,56.598672 69.895086,54.304351 v -1.37776 l -0.727604,0.227121 c -0.400182,0.124918 -2.713358,0.227121 -5.14039,0.227121 -4.833681,0 -5.118612,-0.08085 -6.418782,-1.821256 -0.52466,-0.702311 -0.548693,-1.111359 -0.628628,-10.699278 -0.09009,-10.806473 -0.03547,-11.347937 1.298002,-12.866678 1.276346,-1.453678 2.54822,-1.791598 6.356247,-1.68877 3.830557,0.103436 4.906147,0.489417 6.009364,2.156489 0.565223,0.85411 0.72046,1.444884 0.801531,3.050339 0.09085,1.799001 0.200055,2.13686 1.132079,3.502275 0.567344,0.831158 1.449792,2.41646 1.960995,3.522892 l 0.92946,2.011696 h 5.02757 c 5.563176,0 6.272511,0.148304 7.460154,1.55974 1.077156,1.280125 1.251511,2.380379 1.253109,7.907612 0.0016,5.439791 -0.164269,6.351289 -1.400214,7.695711 -1.319612,1.435436 -2.223871,1.611228 -8.255601,1.604931 -4.022426,-0.0042 -5.837072,-0.105932 -6.573523,-0.368512 z m 12.216281,-1.489835 0.826929,-0.288268 -2.170337,-3.160742 -2.170337,-3.16074 -2.234374,0.07557 -2.234375,0.07557 -2.087089,3.013668 c -1.147898,1.657519 -1.990676,3.104478 -1.87284,3.215465 0.410204,0.386363 1.30277,0.456547 6.194037,0.487051 2.951547,0.01842 5.252451,-0.08469 5.748386,-0.257578 z M 73.71445,53.131011 c 0.958191,-1.37433 1.80484,-2.662108 1.881441,-2.861728 0.0766,-0.19962 -0.453022,-1.270255 -1.176941,-2.379189 l -1.316218,-2.016243 -0.810073,0.305769 -0.810073,0.305768 v 4.395813 c 0,3.80026 0.08413,4.748591 0.421238,4.748591 0.03765,0 0.852435,-1.124453 1.810626,-2.498781 z m 13.740955,1.903468 c 0.222295,-0.829487 0.156557,-9.709086 -0.07786,-10.517187 -0.174331,-0.600967 -0.3776,-0.376903 -2.222693,2.450086 l -2.030815,3.111545 1.918338,2.771696 c 1.055087,1.524431 1.993749,2.773378 2.085916,2.775434 0.09217,0.0021 0.239372,-0.264152 0.327114,-0.591574 z M 68.553246,51.538537 c 0.739924,-0.382631 1.077257,-0.889582 1.077257,-1.618926 0,-0.311723 -0.918072,-0.375236 -5.423958,-0.375236 -4.992492,0 -5.423289,0.03683 -5.415544,0.463021 0.01027,0.565037 0.474485,1.192781 1.18221,1.59866 0.822678,0.471805 7.640852,0.41815 8.580035,-0.06752 z m 15.288986,-5.623155 c 1.533914,-2.373824 2.078728,-3.423159 1.852083,-3.567186 -0.176607,-0.112228 -2.529896,-0.205874 -5.22953,-0.208103 l -4.908426,-0.0041 -0.568541,1.345698 -0.568541,1.345698 1.436126,2.226177 1.436126,2.226177 2.188758,-6.35e-4 2.188758,-6.35e-4 2.173187,-3.363135 z m -13.959156,1.313889 c -0.01009,-0.61144 -0.231862,-0.833208 -1.389063,-1.389063 -1.944633,-0.934092 -2.63112,-2.175345 -2.487619,-4.497916 0.117505,-1.901821 0.763005,-3.408346 2.748092,-6.413738 0.726805,-1.100372 1.14553,-2.012478 1.093172,-2.38125 l -0.08486,-0.597721 h -5.55625 -5.55625 l -0.07031,7.669696 c -0.03867,4.218333 -0.01264,7.819973 0.05784,8.003646 0.09756,0.25423 1.456512,0.33395 5.692702,0.33395 h 5.564554 z m 2.860167,-3.353464 c 1.407392,-1.290286 1.367501,-2.669778 -0.161248,-5.576224 -0.612335,-1.164166 -1.294751,-2.354791 -1.516479,-2.645833 -0.399001,-0.523731 -0.408468,-0.522372 -0.921657,0.132292 -1.010724,1.289361 -2.630023,4.818734 -2.630023,5.732318 0,1.921801 1.307335,3.232314 3.245032,3.252922 0.773891,0.0082 1.216521,-0.191513 1.984375,-0.895475 z m -3.11274,-13.890246 c 0,-0.503609 -1.587114,-1.806213 -2.398423,-1.968475 -0.463497,-0.0927 -1.896993,-0.168544 -3.185546,-0.168544 -2.766186,0 -4.158984,0.460049 -4.829551,1.59523 l -0.464314,0.78602 h 5.438917 c 3.147394,0 5.438917,-0.1029 5.438917,-0.244231 z m 6.769054,7.53006 c -1.066815,-1.301907 -1.148197,-2.078185 -0.231604,-2.209208 0.426091,-0.06091 0.795026,0.215573 1.397538,1.047315 1.542505,2.129367 0.487962,3.180255 -1.165934,1.161893 z M 80.6695,37.030739 c -0.352803,-0.770624 -1.016375,-1.828139 -1.474604,-2.350033 -0.912552,-1.03934 -1.07448,-1.92044 -0.40047,-2.179082 0.923093,-0.354224 3.80066,3.628242 3.80066,5.259997 0,0.533149 -0.131339,0.670254 -0.642061,0.670254 -0.518113,0 -0.765899,-0.27049 -1.283525,-1.401136 z"
       id="path4767"
       inkscape:connector-curvature="0" />
  </g>
</svg>
