<?xml version="1.0" encoding="UTF-8" standalone="no"?>
<!-- Created with Inkscape (http://www.inkscape.org/) -->

<svg
   xmlns:dc="http://purl.org/dc/elements/1.1/"
   xmlns:cc="http://creativecommons.org/ns#"
   xmlns:rdf="http://www.w3.org/1999/02/22-rdf-syntax-ns#"
   xmlns:svg="http://www.w3.org/2000/svg"
   xmlns="http://www.w3.org/2000/svg"
   xmlns:sodipodi="http://sodipodi.sourceforge.net/DTD/sodipodi-0.dtd"
   xmlns:inkscape="http://www.inkscape.org/namespaces/inkscape"
   width="32.918945mm"
   height="32.981232mm"
   viewBox="0 0 32.918948 32.981233"
   version="1.1"
   id="svg8"
   inkscape:version="0.92.2 (5c3e80d, 2017-08-06)"
   sodipodi:docname="Track.svg">
  <defs
     id="defs2" />
  <sodipodi:namedview
     id="base"
     pagecolor="#ffffff"
     bordercolor="#666666"
     borderopacity="1.0"
     inkscape:pageopacity="0.0"
     inkscape:pageshadow="2"
     inkscape:zoom="2.8"
     inkscape:cx="19.826009"
     inkscape:cy="-14.149269"
     inkscape:document-units="mm"
     inkscape:current-layer="layer1"
     showgrid="false"
     inkscape:window-width="1119"
     inkscape:window-height="982"
     inkscape:window-x="1520"
     inkscape:window-y="16"
     inkscape:window-maximized="0"
     fit-margin-top="0"
     fit-margin-left="0"
     fit-margin-right="0"
     fit-margin-bottom="0" />
  <metadata
     id="metadata5">
    <rdf:RDF>
      <cc:Work
         rdf:about="">
        <dc:format>image/svg+xml</dc:format>
        <dc:type
           rdf:resource="http://purl.org/dc/dcmitype/StillImage" />
        <dc:title></dc:title>
      </cc:Work>
    </rdf:RDF>
  </metadata>
  <g
     inkscape:label="Layer 1"
     inkscape:groupmode="layer"
     id="layer1"
     transform="translate(-78.774394,-25.721672)">
    <path
       style="fill:#8017e1;stroke-width:0.26458332;fill-opacity:1"
       d="m 93.970775,58.322459 c -2.263002,-1.228088 -1.327534,-4.879234 1.250119,-4.879234 2.613613,0 3.516211,3.692183 1.195921,4.892053 -0.954809,0.493749 -1.518019,0.490799 -2.44604,-0.01283 z m 2.173309,-1.568506 c 0.410793,-0.494974 0.149662,-1.610278 -0.429013,-1.832335 -1.101361,-0.422632 -2.156624,0.941584 -1.417367,1.832335 0.419979,0.506042 1.426401,0.506042 1.84638,0 z m 3.372699,-1.258744 c -0.19914,-0.518949 0.05184,-0.842873 1.048787,-1.353609 1.17072,-0.599757 1.93137,-0.564599 1.93137,0.08928 0,0.966219 -2.661295,2.095275 -2.980157,1.264333 z m 4.211707,-2.702195 c -0.19271,-0.502179 1.36327,-2.260206 2.00043,-2.260206 0.88649,0 0.85329,0.780627 -0.0739,1.73723 -0.93053,0.960065 -1.68068,1.163696 -1.92654,0.522976 z m 3.08669,-3.743491 c -0.25492,-0.664304 0.89183,-2.805767 1.44192,-2.692665 0.33088,0.06803 0.44656,0.331145 0.41788,0.95042 -0.0734,1.584467 -1.43197,2.857163 -1.8598,1.742245 z m -27.205969,-4.97622 c -1.27992,-1.27992 -1.061105,-3.197727 0.471166,-4.129557 0.593259,-0.360782 0.927776,-0.921085 1.416642,-2.37282 0.831192,-2.468304 2.016402,-4.286492 3.96862,-6.088118 1.648216,-1.521074 4.332457,-3.002331 6.011412,-3.317305 0.720569,-0.135179 1.091462,-0.391719 1.383888,-0.957208 0.503238,-0.973155 1.921147,-1.680617 2.883989,-1.438959 2.017135,0.506269 2.687888,2.939131 1.21611,4.410908 -1.086972,1.086972 -2.41129,1.068998 -3.528174,-0.04789 -0.791222,-0.791222 -0.86069,-0.809656 -1.897877,-0.50364 -4.105397,1.211278 -7.67253,4.778411 -8.883808,8.883808 -0.306016,1.037187 -0.287582,1.106655 0.50364,1.897877 0.618959,0.618959 0.821283,1.059442 0.821283,1.78803 0,2.163737 -2.853087,3.388674 -4.366891,1.87487 z m 2.628201,-1.100019 c 0.228675,-0.228675 0.415774,-0.577358 0.415774,-0.774851 0,-0.197493 -0.187099,-0.546176 -0.415774,-0.774851 -0.799151,-0.799152 -1.965476,-0.33935 -1.965476,0.774851 0,1.114201 1.166325,1.574003 1.965476,0.774851 z M 95.995745,29.214951 c 0.799152,-0.799151 0.33935,-1.965476 -0.774851,-1.965476 -1.114201,0 -1.574003,1.166325 -0.774851,1.965476 0.228675,0.228675 0.577358,0.415774 0.774851,0.415774 0.197493,0 0.546176,-0.187099 0.774851,-0.415774 z m 11.243335,14.723626 c -0.57258,-0.572585 -0.77339,-1.024412 -0.77339,-1.740144 0,-1.37059 1.16708,-2.513542 2.56661,-2.513542 1.22997,0 2.0098,0.499502 2.45398,1.571827 1.06906,2.580956 -2.25141,4.677646 -4.2472,2.681859 z m 2.61327,-0.867019 c 0.70311,-0.703109 0.19225,-2.06375 -0.77485,-2.06375 -0.54549,0 -1.2889,0.686728 -1.2889,1.190625 0,0.925461 1.41343,1.523449 2.06375,0.873125 z m -15.2807,-0.329241 c -0.714559,-0.86099 0.467974,-1.89688 1.260588,-1.104266 0.336959,0.336959 0.371466,0.543703 0.149562,0.896076 -0.386334,0.613479 -0.998752,0.703894 -1.41015,0.20819 z m -3.010825,-1.381731 c -0.632394,-0.632394 1.120984,-2.998611 2.221984,-2.998611 0.984992,0 0.837236,0.719215 -0.402435,1.958886 -1.215358,1.215358 -1.488079,1.371196 -1.819549,1.039725 z m -3.228391,-1.426149 c -0.334639,-0.541456 0.175711,-1.631616 1.353078,-2.890316 1.250392,-1.33677 2.474644,-2.02221 3.14938,-1.76329 0.731972,0.280885 0.417711,0.875381 -0.89367,1.69058 -0.808749,0.502747 -1.563576,1.262986 -2.009516,2.023924 -0.694587,1.185224 -1.246768,1.509467 -1.599272,0.939102 z m -3.297998,-1.583003 c 0,-2.08554 4.253919,-6.339459 6.339459,-6.339459 1.072692,0 0.611087,0.967535 -0.856856,1.795991 -1.588138,0.89629 -3.089235,2.445209 -3.889021,4.01292 -0.602584,1.181162 -1.593582,1.511093 -1.593582,0.530548 z m 22.191394,-1.398245 c -0.59588,-1.226491 -0.53588,-2.030798 0.15149,-2.030798 1.00713,0 1.83167,2.921899 0.87978,3.117617 -0.32242,0.06629 -0.62699,-0.254679 -1.03127,-1.086819 z M 104.5466,33.09407 c -0.84101,-0.891051 -0.97199,-1.875845 -0.24948,-1.875845 0.67767,0 2.27724,1.716433 2.07958,2.231519 -0.24682,0.643198 -1.03121,0.490755 -1.8301,-0.355674 z m -4.11159,-2.872211 c -0.624391,-0.310553 -0.849247,-0.586923 -0.79348,-0.975267 0.155199,-1.080772 2.85541,-0.211345 2.85541,0.919399 0,0.650163 -0.82226,0.672441 -2.06193,0.05587 z"
       id="path4832"
       inkscape:connector-curvature="0" />
  </g>
</svg>
