<?xml version="1.0" encoding="UTF-8" standalone="no"?>
<!-- Created with Inkscape (http://www.inkscape.org/) -->

<svg
   xmlns:dc="http://purl.org/dc/elements/1.1/"
   xmlns:cc="http://creativecommons.org/ns#"
   xmlns:rdf="http://www.w3.org/1999/02/22-rdf-syntax-ns#"
   xmlns:svg="http://www.w3.org/2000/svg"
   xmlns="http://www.w3.org/2000/svg"
   xmlns:sodipodi="http://sodipodi.sourceforge.net/DTD/sodipodi-0.dtd"
   xmlns:inkscape="http://www.inkscape.org/namespaces/inkscape"
   width="10.311971mm"
   height="10.803431mm"
   viewBox="0 0 10.311972 10.803431"
   version="1.1"
   id="svg8"
   inkscape:version="0.92.2 (5c3e80d, 2017-08-06)"
   sodipodi:docname="woman-eov.svg">
  <defs
     id="defs2" />
  <sodipodi:namedview
     id="base"
     pagecolor="#ffffff"
     bordercolor="#666666"
     borderopacity="1.0"
     inkscape:pageopacity="0.0"
     inkscape:pageshadow="2"
     inkscape:zoom="2.8"
     inkscape:cx="-34.793039"
     inkscape:cy="84.619796"
     inkscape:document-units="mm"
     inkscape:current-layer="layer1"
     showgrid="false"
     inkscape:window-width="1119"
     inkscape:window-height="982"
     inkscape:window-x="1520"
     inkscape:window-y="16"
     inkscape:window-maximized="0"
     fit-margin-top="0"
     fit-margin-left="0"
     fit-margin-right="0"
     fit-margin-bottom="0" />
  <metadata
     id="metadata5">
    <rdf:RDF>
      <cc:Work
         rdf:about="">
        <dc:format>image/svg+xml</dc:format>
        <dc:type
           rdf:resource="http://purl.org/dc/dcmitype/StillImage" />
        <dc:title></dc:title>
      </cc:Work>
    </rdf:RDF>
  </metadata>
  <g
     inkscape:label="Layer 1"
     inkscape:groupmode="layer"
     id="layer1"
     transform="translate(-93.225684,-74.032121)">
    <path
       style="fill:#8017e1;stroke-width:0.17638889;fill-opacity:1"
       d="m 95.528767,84.461676 c -0.842386,-0.408012 -2.303083,-1.703138 -2.303083,-2.042027 0,-0.385054 0.351378,-0.20919 0.986377,0.493677 0.347974,0.385166 1.061319,0.910016 1.585211,1.166332 0.523892,0.256316 0.908982,0.536493 0.855755,0.622614 -0.132556,0.214481 -0.225979,0.194488 -1.12426,-0.240596 z m 4.303436,0.207745 c -0.138779,-0.22455 -0.147751,-0.215828 0.625427,-0.608025 1.03995,-0.52752 1.71897,-1.13013 2.30834,-2.048584 0.35336,-0.550662 0.62598,-0.816574 0.73027,-0.71229 0.2271,0.227098 -0.51252,1.366473 -1.41816,2.184663 -0.90848,0.820761 -2.086589,1.441968 -2.245877,1.184236 z M 96.16061,83.625496 c -0.471589,-0.184203 -1.01899,-0.478147 -1.216448,-0.653208 -0.589638,-0.522758 -1.365701,-1.670885 -1.365701,-2.020452 0,-0.498593 0.284068,-0.388866 0.52993,0.204697 l 0.219952,0.53101 0.410387,-0.442815 c 0.274464,-0.296152 0.603045,-0.444886 0.992073,-0.449066 0.319927,-0.0034 0.778819,-0.115371 1.01976,-0.248741 0.258237,-0.142944 0.547878,-0.183951 0.705555,-0.09989 0.147115,0.07843 0.94217,0.140229 1.766788,0.137334 1.005084,-0.0035 1.726274,0.09036 2.187844,0.284846 0.3787,0.159561 0.70529,0.269225 0.72576,0.243699 0.21446,-0.267432 0.42548,-0.902092 0.5286,-1.589816 0.17714,-1.18139 0.51315,-1.084419 0.38963,0.112445 -0.32892,3.186881 -3.802857,5.197415 -6.89413,3.989957 z m 3.206316,-0.272673 c 0.579399,-0.172063 1.184034,-0.528569 1.652884,-0.974569 1.05204,-1.000784 0.79525,-1.198396 -1.716563,-1.32098 -2.353684,-0.114866 -2.10498,-0.120352 -3.152313,0.06954 -0.489214,0.0887 -0.969489,0.297229 -1.102026,0.478483 -0.20285,0.277416 -0.180799,0.379217 0.161556,0.745838 0.636448,0.68156 1.844427,1.2262 2.789802,1.257837 0.24918,0.0083 0.864177,-0.106929 1.36666,-0.256151 z m -4.29023,-3.300839 c -0.543163,-0.46721 -0.852285,-1.895905 -0.410209,-1.895905 0.138891,0 0.34778,0.09525 0.464197,0.211667 0.164629,0.164629 0.211666,0.04509 0.211666,-0.537926 0,-0.899717 0.330609,-1.591972 1.048982,-2.196444 0.472913,-0.397929 0.69002,-0.448057 1.940568,-0.448057 1.378779,0 1.418971,0.0124 1.93137,0.595993 0.55836,0.635932 0.84547,1.809129 0.66436,2.714678 -0.0872,0.435984 -0.054,0.492472 0.24369,0.414625 0.28708,-0.07507 0.34464,10e-4 0.34464,0.455548 0,0.784527 -0.67421,1.205917 -1.516048,0.947549 -0.371631,-0.114057 -0.819898,-0.12984 -1.133469,-0.03991 -0.300017,0.08604 -0.779342,0.0768 -1.136888,-0.02192 -0.413034,-0.114044 -0.73225,-0.109636 -0.961928,0.01328 -0.551396,0.295098 -1.194243,0.214052 -1.690931,-0.213181 z m 1.720863,-0.450748 c 0.200161,-0.171909 0.309026,-0.519047 0.309664,-0.987426 0.0016,-1.147393 0.318195,-2.037485 0.803445,-2.25858 0.541204,-0.246589 0.545214,-0.447408 0.01377,-0.68955 -1.042843,-0.475151 -2.367371,1.131301 -2.146601,2.603503 0.110583,0.737419 0.09683,0.768841 -0.336485,0.768841 -0.57434,0 -0.574188,0.230887 4.58e-4,0.682897 0.470162,0.369829 0.821951,0.338773 1.355756,-0.119685 z m 2.489488,-0.146293 c 0.904693,-0.904695 0.387559,-2.709975 -0.776293,-2.709975 -0.643423,0 -0.798584,0.299134 -0.931526,1.795876 -0.112033,1.261351 -0.06725,1.339553 0.781778,1.365199 0.276656,0.0084 0.646979,-0.172038 0.926041,-0.4511 z m 1.201193,0.338774 c -0.30472,-0.05807 -0.37787,-0.154057 -0.28416,-0.372854 0.0694,-0.162054 0.1654,-0.764982 0.21331,-1.339839 0.0652,-0.782255 0.0105,-1.187434 -0.21738,-1.610606 -0.369331,-0.685812 -1.06926,-1.11496 -1.354025,-0.830196 -0.140278,0.140279 -0.01525,0.371561 0.455187,0.841994 0.987638,0.987633 1.213218,1.840169 0.731328,2.763825 -0.289497,0.554882 -0.20887,0.682553 0.41043,0.649906 0.43379,-0.02287 0.43596,-0.02778 0.0453,-0.10223 z m -7.201634,-1.550008 c 0.222229,-1.621337 1.193978,-2.985694 2.673106,-3.753097 0.702535,-0.36449 1.133116,-0.457758 2.116666,-0.458489 1.217861,-9.06e-4 2.381252,0.378755 2.381252,0.777097 0,0.236204 -0.20362,0.216181 -0.942934,-0.09272 -2.427395,-1.014231 -5.310432,0.795168 -5.831836,3.660069 -0.176672,0.970741 -0.531226,0.851866 -0.396254,-0.132856 z"
       id="path4845"
       inkscape:connector-curvature="0" />
  </g>
</svg>
