<?xml version="1.0" encoding="UTF-8" standalone="no"?>
<!-- Created with Inkscape (http://www.inkscape.org/) -->

<svg
   xmlns:dc="http://purl.org/dc/elements/1.1/"
   xmlns:cc="http://creativecommons.org/ns#"
   xmlns:rdf="http://www.w3.org/1999/02/22-rdf-syntax-ns#"
   xmlns:svg="http://www.w3.org/2000/svg"
   xmlns="http://www.w3.org/2000/svg"
   xmlns:sodipodi="http://sodipodi.sourceforge.net/DTD/sodipodi-0.dtd"
   xmlns:inkscape="http://www.inkscape.org/namespaces/inkscape"
   width="30.165262mm"
   height="34.191292mm"
   viewBox="0 0 30.165266 34.191293"
   version="1.1"
   id="svg8"
   inkscape:version="0.92.2 (5c3e80d, 2017-08-06)"
   sodipodi:docname="customer-service.svg">
  <defs
     id="defs2" />
  <sodipodi:namedview
     id="base"
     pagecolor="#ffffff"
     bordercolor="#666666"
     borderopacity="1.0"
     inkscape:pageopacity="0.0"
     inkscape:pageshadow="2"
     inkscape:zoom="2.8"
     inkscape:cx="4.4507689"
     inkscape:cy="2.2171063"
     inkscape:document-units="mm"
     inkscape:current-layer="layer1"
     showgrid="false"
     inkscape:window-width="1119"
     inkscape:window-height="982"
     inkscape:window-x="1520"
     inkscape:window-y="16"
     inkscape:window-maximized="0"
     fit-margin-top="0"
     fit-margin-left="0"
     fit-margin-right="0"
     fit-margin-bottom="0" />
  <metadata
     id="metadata5">
    <rdf:RDF>
      <cc:Work
         rdf:about="">
        <dc:format>image/svg+xml</dc:format>
        <dc:type
           rdf:resource="http://purl.org/dc/dcmitype/StillImage" />
        <dc:title></dc:title>
      </cc:Work>
    </rdf:RDF>
  </metadata>
  <g
     inkscape:label="Layer 1"
     inkscape:groupmode="layer"
     id="layer1"
     transform="translate(-82.842426,-28.841881)">
    <path
       style="fill:#8017e1;stroke-width:0.26458335;fill-opacity:1"
       d="M 83.464446,62.948097 C 82.6036,62.621291 82.69017,61.876156 84.16202,56.94382 l 1.284952,-4.306016 -0.870821,-1.647108 c -3.506891,-6.633083 -1.541243,-15.065478 4.520121,-19.390777 2.599547,-1.854998 5.412955,-2.753544 8.635489,-2.758 3.138069,-0.0043 4.798509,0.360194 7.188769,1.578223 2.16073,1.101067 3.01982,2.047351 2.5892,2.851985 -0.50025,0.934713 -1.06106,0.899859 -2.89919,-0.180179 -0.97095,-0.570505 -2.41205,-1.225165 -3.20245,-1.4548 -1.624572,-0.47199 -4.605775,-0.536386 -6.338548,-0.136918 -4.559421,1.051116 -8.586659,5.247014 -9.567971,9.968675 -0.632899,3.045246 0.104258,6.72022 1.88825,9.413557 l 0.807154,1.218579 -1.090794,3.611935 c -0.599937,1.986563 -1.042323,3.660404 -0.983079,3.71965 0.05924,0.05924 1.902447,-0.671071 4.09601,-1.622917 3.786505,-1.643071 4.046171,-1.717286 5.132179,-1.466824 4.010079,0.924825 8.368379,-0.416462 11.487139,-3.535216 3.31402,-3.314022 4.5219,-7.672764 3.38286,-12.207315 -0.49215,-1.959263 -0.25236,-2.586883 0.93561,-2.448789 1.10221,0.128123 1.67895,1.658366 1.81995,4.828767 0.14737,3.313379 -0.21155,5.115393 -1.55242,7.794372 -1.89748,3.791053 -5.58127,6.745172 -9.76988,7.834692 -1.29725,0.337436 -2.434855,0.417632 -4.630208,0.326411 l -2.910417,-0.120933 -4.233333,1.845127 c -2.328333,1.01482 -4.590521,1.995644 -5.027084,2.179611 -0.504399,0.212553 -1.010763,0.252098 -1.389062,0.108485 z m 6.19257,-17.924822 c -0.895577,-0.989601 -0.391134,-2.514063 0.937866,-2.834297 0.553899,-0.133467 0.865805,-0.0206 1.389062,0.502658 0.775213,0.775213 0.848018,1.392075 0.262895,2.227455 -0.519246,0.741327 -1.960737,0.799316 -2.589823,0.104184 z M 96.82481,45.1764 c -0.23813,-0.181901 -0.510415,-0.65216 -0.605078,-1.045019 -0.246791,-1.024206 0.92324,-2.191036 1.940924,-1.935614 0.392045,0.0984 0.862304,0.302973 1.045019,0.454613 0.467087,0.387648 0.41382,1.94359 -0.08357,2.440975 -0.498857,0.498858 -1.697481,0.54323 -2.2973,0.08505 z m 6.99546,0.149801 c -1.0687,-0.427542 -0.8348,-2.503373 0.34251,-3.039794 1.83432,-0.835773 3.3,1.896033 1.61935,3.018233 -0.32864,0.21944 -1.4368,0.231619 -1.96186,0.02156 z"
       id="path4858"
       inkscape:connector-curvature="0" />
  </g>
</svg>
