<?xml version="1.0" encoding="UTF-8" standalone="no"?>
<!-- Created with Inkscape (http://www.inkscape.org/) -->

<svg
   xmlns:dc="http://purl.org/dc/elements/1.1/"
   xmlns:cc="http://creativecommons.org/ns#"
   xmlns:rdf="http://www.w3.org/1999/02/22-rdf-syntax-ns#"
   xmlns:svg="http://www.w3.org/2000/svg"
   xmlns="http://www.w3.org/2000/svg"
   xmlns:sodipodi="http://sodipodi.sourceforge.net/DTD/sodipodi-0.dtd"
   xmlns:inkscape="http://www.inkscape.org/namespaces/inkscape"
   width="35.651962mm"
   height="30.397738mm"
   viewBox="0 0 35.651963 30.397738"
   version="1.1"
   id="svg8"
   inkscape:version="0.92.2 (5c3e80d, 2017-08-06)"
   sodipodi:docname="dashboard.svg">
  <defs
     id="defs2" />
  <sodipodi:namedview
     id="base"
     pagecolor="#ffffff"
     bordercolor="#666666"
     borderopacity="1.0"
     inkscape:pageopacity="0.0"
     inkscape:pageshadow="2"
     inkscape:zoom="2.8"
     inkscape:cx="97.983895"
     inkscape:cy="-6.95748"
     inkscape:document-units="mm"
     inkscape:current-layer="layer1"
     showgrid="false"
     inkscape:window-width="1119"
     inkscape:window-height="982"
     inkscape:window-x="1520"
     inkscape:window-y="16"
     inkscape:window-maximized="0"
     fit-margin-top="0"
     fit-margin-left="0"
     fit-margin-right="0"
     fit-margin-bottom="0" />
  <metadata
     id="metadata5">
    <rdf:RDF>
      <cc:Work
         rdf:about="">
        <dc:format>image/svg+xml</dc:format>
        <dc:type
           rdf:resource="http://purl.org/dc/dcmitype/StillImage" />
        <dc:title></dc:title>
      </cc:Work>
    </rdf:RDF>
  </metadata>
  <g
     inkscape:label="Layer 1"
     inkscape:groupmode="layer"
     id="layer1"
     transform="translate(-58.09512,-30.207995)">
    <path
       style="fill:#8017e1;fill-opacity:1;stroke-width:0.26458332"
       d="m 68.739701,60.208853 c -0.234515,-0.611138 0.09514,-1.190625 0.677316,-1.190625 1.682992,0 2.906522,-1.556041 3.125903,-3.975407 l 0.143345,-1.580843 H 66.1552 59.624134 l -0.631897,-0.631897 c -0.347543,-0.347544 -0.705371,-1.032153 -0.795172,-1.521354 -0.0898,-0.489202 -0.127458,-5.083839 -0.08368,-10.210305 l 0.0796,-9.320847 0.733494,-0.73332 0.733494,-0.733319 16.002922,-0.07215 c 17.931737,-0.08085 17.309791,-0.141011 17.857442,1.727341 0.194373,0.663124 0.263339,4.169275 0.208597,10.604949 l -0.08178,9.614303 -0.742357,0.638301 c -0.740876,0.637025 -0.755293,0.638302 -7.209896,0.638302 h -6.467538 l 0.0015,0.859895 c 0.0039,2.263016 1.266518,4.275265 2.885835,4.599128 1.067692,0.21354 1.523022,0.755777 1.08144,1.287852 -0.277564,0.334444 -1.42853,0.396875 -7.316743,0.396875 -5.966915,0 -7.009607,-0.05796 -7.13966,-0.396875 z m 9.800595,-2.405576 c -0.338298,-0.668224 -0.694671,-1.91838 -0.79194,-2.778125 l -0.176853,-1.563174 h -1.648869 -1.648869 l -0.140672,1.55136 c -0.07737,0.85325 -0.384868,2.103406 -0.683328,2.778125 l -0.542656,1.226765 h 3.124136 3.124137 z M 92.129128,42.116026 c 0.0497,-6.884676 -0.01603,-9.729217 -0.230834,-9.988021 -0.247859,-0.298653 -3.042882,-0.361861 -16.00132,-0.361861 -15.252331,0 -15.708829,0.01463 -15.974895,0.511773 -0.41451,0.77452 -0.371681,18.863772 0.04565,19.281105 0.244112,0.244111 4.069668,0.303446 16.205729,0.251354 l 15.886185,-0.06819 z m -10.422044,8.045958 c -0.0853,-0.222295 -0.0853,-0.586051 0,-0.808346 0.130965,-0.341288 0.742573,-0.392746 3.930912,-0.330729 l 3.775816,0.07344 v 0.661458 0.661458 l -3.775816,0.07344 c -3.188339,0.06202 -3.799947,0.01056 -3.930912,-0.330729 z M 61.925453,49.868463 c -0.08833,-0.230183 -0.160599,-3.727948 -0.160599,-7.772812 0,-6.186386 0.06249,-7.40616 0.393505,-7.680877 0.216428,-0.179619 0.573616,-0.257466 0.79375,-0.172992 0.343612,0.131856 0.400245,1.165576 0.400245,7.305642 v 7.152054 h 8.050892 c 6.871298,0 8.110164,0.05927 8.455425,0.404531 0.222493,0.222493 0.337321,0.57968 0.255175,0.79375 -0.127378,0.331942 -1.464836,0.389219 -9.088576,0.389219 -7.907322,0 -8.957757,-0.04831 -9.099817,-0.418515 z m 19.781631,-2.616896 c -0.0853,-0.222295 -0.0853,-0.586051 0,-0.808346 0.130965,-0.341288 0.742573,-0.392746 3.930912,-0.330729 l 3.775816,0.07344 v 0.661458 0.661459 l -3.775816,0.07344 c -3.188339,0.06202 -3.799947,0.01056 -3.930912,-0.33073 z M 65.601312,46.606952 c -0.972456,-0.341089 -1.345356,-0.616339 -1.40762,-1.03901 -0.116132,-0.788353 0.428129,-0.92595 1.778301,-0.449581 1.251856,0.44168 1.278328,0.434236 2.804319,-0.788646 0.582083,-0.466464 1.812801,-1.228833 2.734928,-1.694153 1.851357,-0.934225 1.674233,-0.965571 3.650935,0.646111 l 0.829613,0.676416 1.000909,-1.399618 c 1.519465,-2.124742 2.014115,-2.438375 2.478166,-1.571287 0.212677,0.39739 -0.03642,0.896534 -1.320401,2.645833 -0.870391,1.185824 -1.775568,2.156044 -2.011506,2.156044 -0.235938,0 -0.91749,-0.395371 -1.514561,-0.878602 -0.597071,-0.483231 -1.230328,-0.963984 -1.407238,-1.06834 -0.427166,-0.251977 -1.969087,0.565856 -3.877367,2.056551 -0.854254,0.667319 -1.747223,1.20408 -1.984375,1.192801 -0.237153,-0.01128 -1.026499,-0.229312 -1.754103,-0.484519 z m 16.105772,-2.265801 c -0.0853,-0.222295 -0.0853,-0.586051 0,-0.808346 0.130965,-0.341288 0.742573,-0.392747 3.930912,-0.33073 l 3.775816,0.07344 v 0.661459 0.661458 l -3.775816,0.07344 c -3.188339,0.06202 -3.799947,0.01056 -3.930912,-0.330729 z M 64.322493,43.231422 c -0.493029,-0.493028 -0.04002,-1.167706 1.434816,-2.136923 1.608146,-1.056822 1.613798,-1.058231 2.976563,-0.741801 1.281672,0.2976 1.454548,0.273139 2.820565,-0.399101 1.342157,-0.660497 1.570016,-0.6952 2.933026,-0.446693 1.447394,0.263891 1.506606,0.25005 2.876302,-0.672357 1.38977,-0.935926 1.957887,-1.014621 2.228764,-0.308727 0.176819,0.460782 -0.216127,0.857234 -1.956679,1.974143 -1.33738,0.858195 -1.418808,0.875403 -2.946674,0.62272 -1.474575,-0.24387 -1.65045,-0.214653 -2.857437,0.474686 -1.225729,0.700043 -1.355178,0.720071 -2.755574,0.426335 -1.445278,-0.303151 -1.488788,-0.294311 -2.647685,0.537946 -1.15615,0.830284 -1.755017,1.020743 -2.105987,0.669772 z m 17.384591,-1.800688 c -0.0853,-0.222295 -0.0853,-0.586051 0,-0.808346 0.130965,-0.341288 0.742573,-0.392746 3.930912,-0.330729 l 3.775816,0.07344 v 0.661458 0.661458 l -3.775816,0.07344 c -3.188339,0.06202 -3.799947,0.01056 -3.930912,-0.330729 z m 0,-2.910417 c -0.0853,-0.222295 -0.0853,-0.586051 0,-0.808346 0.130965,-0.341288 0.742573,-0.392746 3.930912,-0.330729 l 3.775816,0.07344 v 0.661458 0.661459 l -3.775816,0.07344 c -3.188339,0.06202 -3.799947,0.01056 -3.930912,-0.33073 z m 0,-2.910416 c -0.0853,-0.222295 -0.0853,-0.586051 0,-0.808346 0.130965,-0.341288 0.742573,-0.392747 3.930912,-0.33073 l 3.775816,0.07344 v 0.661459 0.661458 l -3.775816,0.07344 c -3.188339,0.06202 -3.799947,0.01056 -3.930912,-0.330729 z"
       id="path4637"
       inkscape:connector-curvature="0" />
  </g>
</svg>
