<?xml version="1.0" encoding="UTF-8" standalone="no"?>
<!-- Created with Inkscape (http://www.inkscape.org/) -->

<svg
   xmlns:dc="http://purl.org/dc/elements/1.1/"
   xmlns:cc="http://creativecommons.org/ns#"
   xmlns:rdf="http://www.w3.org/1999/02/22-rdf-syntax-ns#"
   xmlns:svg="http://www.w3.org/2000/svg"
   xmlns="http://www.w3.org/2000/svg"
   xmlns:sodipodi="http://sodipodi.sourceforge.net/DTD/sodipodi-0.dtd"
   xmlns:inkscape="http://www.inkscape.org/namespaces/inkscape"
   width="35.566765mm"
   height="35.646492mm"
   viewBox="0 0 35.566767 35.646492"
   version="1.1"
   id="svg8"
   inkscape:version="0.92.2 (5c3e80d, 2017-08-06)"
   sodipodi:docname="increase.svg">
  <defs
     id="defs2" />
  <sodipodi:namedview
     id="base"
     pagecolor="#ffffff"
     bordercolor="#666666"
     borderopacity="1.0"
     inkscape:pageopacity="0.0"
     inkscape:pageshadow="2"
     inkscape:zoom="2.8"
     inkscape:cx="55.454619"
     inkscape:cy="27.927233"
     inkscape:document-units="mm"
     inkscape:current-layer="layer1"
     showgrid="false"
     inkscape:window-width="1119"
     inkscape:window-height="982"
     inkscape:window-x="1520"
     inkscape:window-y="16"
     inkscape:window-maximized="0"
     fit-margin-top="0"
     fit-margin-left="0"
     fit-margin-right="0"
     fit-margin-bottom="0" />
  <metadata
     id="metadata5">
    <rdf:RDF>
      <cc:Work
         rdf:about="">
        <dc:format>image/svg+xml</dc:format>
        <dc:type
           rdf:resource="http://purl.org/dc/dcmitype/StillImage" />
        <dc:title></dc:title>
      </cc:Work>
    </rdf:RDF>
  </metadata>
  <g
     inkscape:label="Layer 1"
     inkscape:groupmode="layer"
     id="layer1"
     transform="translate(-69.347658,-34.189151)">
    <path
       style="fill:#8017e1;fill-opacity:1;stroke-width:0.26458332"
       d="m 84.295768,69.60245 c -3.184131,-0.60907 -6.526914,-2.818498 -8.314606,-5.495589 -1.443273,-2.161318 -2.086145,-3.979176 -2.392201,-6.764458 -0.225972,-2.05647 -0.34522,-2.409629 -1.052437,-3.116846 -0.477855,-0.477856 -1.19308,-0.861952 -1.784158,-0.958143 -1.201383,-0.195514 -1.709612,-0.841046 -1.172081,-1.488731 0.889186,-1.071404 4.086113,0.374447 5.079178,2.297122 0.285324,0.552417 0.603956,1.972055 0.741213,3.302418 0.320595,3.107352 1.507551,5.573467 3.605325,7.490715 2.631643,2.405173 5.240723,3.336592 8.735627,3.118552 4.662698,-0.290889 8.628158,-3.372724 10.295648,-8.001464 0.40162,-1.114852 0.50005,-2.529694 0.62584,-8.995833 l 0.14926,-7.672917 h 0.66146 0.661464 l 0.0721,7.408333 c 0.0433,4.44237 -0.0386,7.927823 -0.2044,8.705906 -1.463114,6.865601 -8.651827,11.520515 -15.707262,10.170935 z m 0.462652,-4.163454 c -2.54388,-0.655108 -5.184952,-2.86222 -6.217095,-5.195551 -0.287192,-0.649246 -0.638315,-2.20262 -0.780273,-3.451942 -0.141958,-1.249323 -0.432655,-2.689252 -0.645993,-3.199843 -0.990875,-2.371497 -3.317118,-4.136417 -5.953236,-4.516719 -1.58182,-0.228203 -2.183684,-0.80405 -1.589135,-1.520439 0.514831,-0.620333 2.599502,-0.316426 4.68234,0.682601 3.132553,1.502518 4.863798,4.219179 5.210982,8.177048 0.423085,4.823121 3.640875,7.711414 8.184781,7.346675 2.642645,-0.212127 4.666485,-1.577285 5.953055,-4.015566 l 0.71061,-1.346734 0.1323,-9.653937 c 0.12715,-9.278626 0.15218,-9.657758 0.64397,-9.752209 1.12374,-0.215823 1.20841,0.404061 1.20287,8.807237 -0.003,4.374191 -0.12205,8.760914 -0.26482,9.748273 -0.67297,4.654133 -4.076859,7.838552 -8.57901,8.025856 -1.026605,0.04271 -2.237711,-0.01791 -2.691346,-0.13475 z m -0.153196,-4.537657 c -1.736331,-0.917017 -2.3315,-2.011837 -2.758336,-5.073988 -0.451493,-3.239051 -1.32936,-5.295824 -3.093085,-7.246853 -1.609934,-1.780904 -4.250089,-3.167425 -6.824404,-3.583947 -2.089008,-0.337999 -2.787797,-0.723033 -2.530255,-1.394176 0.237091,-0.61785 2.980549,-0.548071 4.983756,0.12676 5.224119,1.759879 9.215936,7.003205 9.215936,12.105306 0,1.750649 0.680582,2.940656 2.02088,3.533533 1.203873,0.53253 2.110314,0.460638 3.215385,-0.255021 1.173563,-0.760016 1.239881,-1.176303 1.378318,-8.651927 l 0.132292,-7.14375 0.631537,-0.08929 c 0.347345,-0.04911 0.732475,0.06995 0.855844,0.264584 0.326264,0.514737 0.283934,13.122311 -0.04808,14.317881 -0.345349,1.243595 -1.68489,2.800829 -2.81573,3.273326 -1.219629,0.509592 -3.211389,0.426331 -4.364056,-0.182433 z m 1.286668,-16.305244 c -0.623127,-0.623126 0.06832,-1.541866 4.404812,-5.852773 2.519662,-2.504794 4.753322,-4.554171 4.963692,-4.554171 0.21037,0 2.52353,2.143513 5.140344,4.763361 4.07502,4.079745 4.71608,4.829688 4.4668,5.225521 -0.65677,1.042912 -1.17832,0.702616 -5.430344,-3.543178 l -4.19669,-4.190543 -4.1702,4.164086 c -3.830652,3.82504 -4.683967,4.482145 -5.178414,3.987697 z"
       id="path4689"
       inkscape:connector-curvature="0" />
  </g>
</svg>
