<?xml version="1.0" encoding="UTF-8" standalone="no"?>
<!-- Created with Inkscape (http://www.inkscape.org/) -->

<svg
   xmlns:dc="http://purl.org/dc/elements/1.1/"
   xmlns:cc="http://creativecommons.org/ns#"
   xmlns:rdf="http://www.w3.org/1999/02/22-rdf-syntax-ns#"
   xmlns:svg="http://www.w3.org/2000/svg"
   xmlns="http://www.w3.org/2000/svg"
   xmlns:sodipodi="http://sodipodi.sourceforge.net/DTD/sodipodi-0.dtd"
   xmlns:inkscape="http://www.inkscape.org/namespaces/inkscape"
   width="32.808334mm"
   height="31.136877mm"
   viewBox="0 0 32.808336 31.136877"
   version="1.1"
   id="svg8"
   inkscape:version="0.92.2 (5c3e80d, 2017-08-06)"
   sodipodi:docname="mail.svg">
  <defs
     id="defs2" />
  <sodipodi:namedview
     id="base"
     pagecolor="#ffffff"
     bordercolor="#666666"
     borderopacity="1.0"
     inkscape:pageopacity="0.0"
     inkscape:pageshadow="2"
     inkscape:zoom="2.8"
     inkscape:cx="107.12859"
     inkscape:cy="86.796058"
     inkscape:document-units="mm"
     inkscape:current-layer="layer1"
     showgrid="false"
     inkscape:window-width="1119"
     inkscape:window-height="982"
     inkscape:window-x="1520"
     inkscape:window-y="16"
     inkscape:window-maximized="0"
     fit-margin-top="0"
     fit-margin-left="0"
     fit-margin-right="0"
     fit-margin-bottom="0" />
  <metadata
     id="metadata5">
    <rdf:RDF>
      <cc:Work
         rdf:about="">
        <dc:format>image/svg+xml</dc:format>
        <dc:type
           rdf:resource="http://purl.org/dc/dcmitype/StillImage" />
        <dc:title></dc:title>
      </cc:Work>
    </rdf:RDF>
  </metadata>
  <g
     inkscape:label="Layer 1"
     inkscape:groupmode="layer"
     id="layer1"
     transform="translate(-55.675586,-54.274478)">
    <path
       style="fill:#8017e1;fill-opacity:1;stroke-width:0.26458332"
       d="m 57.52767,85.235675 c -0.291042,-0.122288 -0.826823,-0.542497 -1.190625,-0.933794 l -0.661459,-0.711452 v -8.379463 -8.379462 l 8.069792,-6.278513 c 4.438385,-3.453182 8.188854,-6.278513 8.334375,-6.278513 0.145521,0 3.89599,2.825331 8.334375,6.278513 l 8.069792,6.278513 v 8.395674 8.395673 l -0.864836,0.864743 -0.864838,0.864743 -14.348705,0.05284 c -7.891788,0.02906 -14.58683,-0.04722 -14.877871,-0.169502 z m 27.812952,-1.527331 c -0.103833,-0.103831 -2.534692,-1.443284 -5.40191,-2.976563 -4.107477,-2.196519 -5.213126,-2.900008 -5.213126,-3.316944 0,-1.086374 1.136171,-0.703154 6.620235,2.232941 3.00631,1.60954 5.514814,2.926434 5.574453,2.926434 0.05964,0 0.108437,-3.095625 0.108437,-6.879166 0,-3.783542 -0.09601,-6.879167 -0.213368,-6.879167 -0.262551,0 -27.601264,14.522127 -27.951527,14.847649 -0.145595,0.135311 5.411432,0.233601 13.207118,0.233601 7.402159,0 13.373518,-0.08495 13.269688,-0.188785 z M 63.831866,79.134629 c 3.437213,-1.81901 6.252636,-3.38554 6.256495,-3.481177 0.0078,-0.19353 -12.357122,-6.837573 -12.725102,-6.837573 -0.127855,0 -0.232464,3.105547 -0.232464,6.901215 0,3.79567 0.101608,6.861529 0.225797,6.81302 0.124188,-0.04851 3.038061,-1.576475 6.475274,-3.395485 z m 9.735414,-5.202502 c 1.258358,-0.684884 1.281553,-0.719195 0.829555,-1.227141 -0.255749,-0.287407 -0.862162,-0.690582 -1.347584,-0.895946 -1.061585,-0.449118 -2.29811,-0.136366 -3.182399,0.804916 l -0.570924,0.607721 1.259621,0.701081 c 0.692791,0.385595 1.362571,0.703978 1.488398,0.707518 0.125828,0.0035 0.811328,-0.310627 1.523333,-0.698149 z m -2.712566,-3.784065 c 1.797162,-0.483925 3.644645,0.09987 4.85026,1.532664 l 0.645545,0.767186 0.978121,-0.501806 c 1.172268,-0.60141 1.074846,-0.938637 -0.730161,-2.527468 -2.577786,-2.269057 -6.459666,-2.269057 -9.037452,0 -1.795181,1.580182 -1.899927,1.927342 -0.758244,2.513061 l 0.950038,0.487398 0.982433,-0.982432 c 0.586388,-0.586388 1.440799,-1.105858 2.11946,-1.288603 z m -4.886539,-1.562784 c 0.450951,-0.490633 1.534286,-1.234679 2.407411,-1.653437 1.340765,-0.643042 1.91648,-0.761378 3.704167,-0.761378 1.779177,0 2.371487,0.120552 3.714848,0.756076 1.45821,0.689857 3.825777,2.867866 3.825777,3.519468 0,0.12799 0.478523,-0.01141 1.063384,-0.309789 1.225735,-0.625322 1.185913,-0.850869 -0.474776,-2.689051 -4.394091,-4.863734 -11.864375,-4.863734 -16.258466,0 -1.641074,1.816472 -1.692248,2.065586 -0.54521,2.654052 0.991717,0.508781 0.992311,0.508756 1.367551,-0.05744 0.206472,-0.311543 0.744364,-0.967868 1.195314,-1.458501 z m -2.172836,-3.330312 c 4.776192,-4.120297 11.928146,-4.07898 16.662211,0.09626 0.678726,0.598606 1.565771,1.612717 1.971211,2.253579 l 0.737163,1.165205 1.587701,-0.801468 1.587701,-0.801469 -0.648496,-0.473114 c -0.356671,-0.260212 -3.562181,-2.733357 -7.123355,-5.495878 l -6.474861,-5.022766 -1.59493,1.223167 c -6.559101,5.030232 -12.193009,9.47619 -12.269283,9.682217 -0.05006,0.135219 0.543572,0.567425 1.319182,0.960456 l 1.410202,0.714604 0.847445,-1.258384 c 0.466095,-0.692111 1.360744,-1.701193 1.988109,-2.242405 z"
       id="path4741"
       inkscape:connector-curvature="0" />
  </g>
</svg>
