<?xml version="1.0" encoding="UTF-8" standalone="no"?>
<!-- Created with Inkscape (http://www.inkscape.org/) -->

<svg
   xmlns:dc="http://purl.org/dc/elements/1.1/"
   xmlns:cc="http://creativecommons.org/ns#"
   xmlns:rdf="http://www.w3.org/1999/02/22-rdf-syntax-ns#"
   xmlns:svg="http://www.w3.org/2000/svg"
   xmlns="http://www.w3.org/2000/svg"
   xmlns:sodipodi="http://sodipodi.sourceforge.net/DTD/sodipodi-0.dtd"
   xmlns:inkscape="http://www.inkscape.org/namespaces/inkscape"
   width="34.654808mm"
   height="18.217693mm"
   viewBox="0 0 34.654808 18.217694"
   version="1.1"
   id="svg8"
   inkscape:version="0.92.2 (5c3e80d, 2017-08-06)"
   sodipodi:docname="58.svg">
  <defs
     id="defs2" />
  <sodipodi:namedview
     id="base"
     pagecolor="#ffffff"
     bordercolor="#666666"
     borderopacity="1.0"
     inkscape:pageopacity="0.0"
     inkscape:pageshadow="2"
     inkscape:zoom="2.8"
     inkscape:cx="97.903086"
     inkscape:cy="111.60339"
     inkscape:document-units="mm"
     inkscape:current-layer="layer1"
     showgrid="false"
     inkscape:window-width="1122"
     inkscape:window-height="982"
     inkscape:window-x="1542"
     inkscape:window-y="17"
     inkscape:window-maximized="0"
     fit-margin-top="0"
     fit-margin-left="0"
     fit-margin-right="0"
     fit-margin-bottom="0" />
  <metadata
     id="metadata5">
    <rdf:RDF>
      <cc:Work
         rdf:about="">
        <dc:format>image/svg+xml</dc:format>
        <dc:type
           rdf:resource="http://purl.org/dc/dcmitype/StillImage" />
        <dc:title></dc:title>
      </cc:Work>
    </rdf:RDF>
  </metadata>
  <g
     inkscape:label="Layer 1"
     inkscape:groupmode="layer"
     id="layer1"
     transform="translate(-58.1165,-73.75727)">
    <path
       style="fill:#8017e1;fill-opacity:1;stroke-width:0.26458332"
       d="M 59.57186,91.661494 58.381235,91.352059 58.22513,89.896851 c -0.08586,-0.800365 -0.130105,-1.490335 -0.09833,-1.533268 0.03178,-0.04293 0.605772,0.05993 1.275547,0.228579 0.669775,0.168652 2.054734,0.259347 3.077686,0.201545 1.599138,-0.09036 1.961537,-0.206719 2.584723,-0.829906 0.568994,-0.568993 0.724811,-0.973502 0.724811,-1.881644 0,-1.422193 -0.602047,-2.163084 -2.081422,-2.561438 -0.985356,-0.265329 -1.701433,-0.231029 -4.070141,0.194962 l -0.859895,0.154644 v -2.50234 c 0,-1.376288 0.07736,-3.592195 0.171911,-4.924238 l 0.171911,-2.421896 h 4.590589 4.590589 v 1.455208 1.455208 h -3.042708 -3.042708 l 0.0015,1.785938 0.0015,1.785937 1.519826,0.01886 c 3.13215,0.03887 5.19818,1.743089 5.532203,4.563383 0.368097,3.108006 -1.313544,5.640464 -4.302334,6.479077 -1.822488,0.511363 -3.673803,0.544296 -5.398597,0.09603 z m 14.222502,-0.07095 c -2.349743,-0.722571 -3.895163,-3.1438 -3.472834,-5.440931 0.24971,-1.358227 1.33056,-3.047467 2.194624,-3.429938 l 0.778436,-0.34457 -0.870907,-0.845814 c -1.689102,-1.640434 -1.736801,-4.558836 -0.101244,-6.194393 0.810576,-0.810576 2.908577,-1.577628 4.315048,-1.577628 2.28831,0 4.497288,1.285981 5.142542,2.993787 0.613886,1.624783 -0.04567,4.112803 -1.343598,5.068388 -0.392016,0.288619 -0.505944,0.504898 -0.306493,0.581847 1.440994,0.55594 2.713635,2.64424 2.713635,4.452853 0,1.345778 -0.769582,3.050895 -1.711318,3.791665 -1.625973,1.27899 -4.886019,1.698712 -7.337891,0.944734 z m 4.301311,-2.621273 c 0.523206,-0.27056 0.871215,-0.734732 1.084442,-1.446421 0.700238,-2.337187 -1.150536,-4.335622 -3.443467,-3.7182 -0.585291,0.157602 -1.247118,0.547751 -1.470726,0.866998 -0.533367,0.761487 -0.522686,2.825007 0.01862,3.597833 0.770377,1.099867 2.443408,1.407065 3.811128,0.69979 z M 78.24411,80.35072 c 0.728301,-0.804763 0.660368,-2.422052 -0.137405,-3.271243 -1.405059,-1.495617 -3.718179,-0.442476 -3.718179,1.69285 0,1.458742 0.694896,2.128693 2.207951,2.128693 0.828316,0 1.288806,-0.153801 1.647633,-0.5503 z m 7.92546,-0.448779 c 1.245153,-2.10787 4.037253,-5.755106 4.469493,-5.838347 0.70511,-0.135793 0.49535,0.281191 -1.84205,3.661739 -1.41632,2.048404 -2.16817,2.911104 -2.537064,2.911104 -0.500914,0 -0.504939,-0.0327 -0.09038,-0.734496 z m 3.738093,0.250642 c -0.59177,-0.653896 -0.56575,-2.228833 0.046,-2.78243 0.59168,-0.535466 1.62199,-0.56531 2.30383,-0.06673 0.60706,0.44389 0.70018,2.240359 0.15047,2.902722 -0.48264,0.581536 -1.95405,0.550016 -2.50027,-0.05356 z m 1.81107,-1.368229 c 0,-0.749653 -0.10079,-0.926042 -0.52916,-0.926042 -0.4225,0 -0.54597,0.204172 -0.61252,1.012844 -0.0762,0.926451 -0.0311,1.00544 0.52917,0.926041 0.50709,-0.07186 0.61251,-0.246183 0.61251,-1.012843 z m -6.728429,-1.13027 c -1.280029,-0.646846 -1.211182,-2.812065 0.108535,-3.413369 1.337664,-0.609479 2.636264,0.63518 2.330654,2.233846 -0.22451,1.174434 -1.361364,1.724187 -2.439189,1.179523 z m 1.337369,-1.085221 c 0.30303,-0.665087 -0.05511,-1.753259 -0.577044,-1.753259 -0.501706,0 -0.85647,1.212522 -0.532098,1.818615 0.392618,0.733612 0.75483,0.712268 1.109142,-0.06536 z"
       id="path4572"
       inkscape:connector-curvature="0" />
  </g>
</svg>
